<svg xmlns="http://www.w3.org/2000/svg" width="250.338" height="233.043" viewBox="0 0 250.338 233.043">
  <g id="Celebration-rafiki" transform="translate(-56.11 -66.572)">
    <g id="freepik--background-simple--inject-92" transform="translate(107.454 66.572)">
      <path id="Tracé_944" data-name="Tracé 944" d="M163.633,258.362c-37.2-5.616-29.7-39.212-20.419-58.443,11.549-23.931,23-40.755,20.419-68.766-2.021-22.421-10-49.244,16.262-61.142,21.53-9.755,46.855,2.518,60.877,20.736,12.472,16.21,12.731,36.184,26.062,52.336,8.547,10.329,19.219,19.638,25.668,31.136,6.972,12.427,4.726,26.294-2.918,36.765-13.292,18.192-38.734,17.43-60.038,24.422C208.945,242.185,187.977,262.049,163.633,258.362Z" transform="translate(-135.643 -66.572)" fill="#2d6ee0"/>
      <path id="Tracé_945" data-name="Tracé 945" d="M163.633,258.362c-37.2-5.616-29.7-39.212-20.419-58.443,11.549-23.931,23-40.755,20.419-68.766-2.021-22.421-10-49.244,16.262-61.142,21.53-9.755,46.855,2.518,60.877,20.736,12.472,16.21,12.731,36.184,26.062,52.336,8.547,10.329,19.219,19.638,25.668,31.136,6.972,12.427,4.726,26.294-2.918,36.765-13.292,18.192-38.734,17.43-60.038,24.422C208.945,242.185,187.977,262.049,163.633,258.362Z" transform="translate(-135.643 -66.572)" fill="#fff" opacity="0.9"/>
    </g>
    <g id="freepik--Shadow--inject-92" transform="translate(56.11 284.999)">
      <ellipse id="freepik--path--inject-92" cx="125.169" cy="7.308" rx="125.169" ry="7.308" fill="#f5f5f5"/>
    </g>
    <g id="freepik--Confetti--inject-92" transform="translate(56.605 75.877)">
      <path id="Tracé_946" data-name="Tracé 946" d="M123.091,194.456c-4.267,0-6.275-4.293-6.359-4.474a.852.852,0,0,1,1.543-.71c0,.058,1.7,3.576,4.945,3.486a.852.852,0,0,1,.045,1.7Z" transform="translate(-78.073 -119.213)" fill="#2d6ee0"/>
      <path id="Tracé_947" data-name="Tracé 947" d="M211.994,102.788a8.153,8.153,0,0,1-1.11-.071.849.849,0,1,1,.252-1.678h0c.039,0,3.925.549,5.629-2.221a.848.848,0,1,1,1.446.884A7.145,7.145,0,0,1,211.994,102.788Z" transform="translate(-111.205 -87.162)" fill="#2d6ee0"/>
      <path id="Tracé_948" data-name="Tracé 948" d="M211.994,102.788a8.153,8.153,0,0,1-1.11-.071.849.849,0,1,1,.252-1.678h0c.039,0,3.925.549,5.629-2.221a.848.848,0,1,1,1.446.884A7.145,7.145,0,0,1,211.994,102.788Z" transform="translate(-111.205 -87.162)" fill="#fff" opacity="0.6"/>
      <path id="Tracé_949" data-name="Tracé 949" d="M61.863,153.61a8.9,8.9,0,0,1-4.6-1.465.846.846,0,1,1,.981-1.375h0c.032,0,3.286,2.2,6.03.452a.852.852,0,1,1,.917,1.433,6.094,6.094,0,0,1-3.331.955Z" transform="translate(-56.877 -105.655)" fill="#2d6ee0"/>
      <path id="Tracé_950" data-name="Tracé 950" d="M61.863,153.61a8.9,8.9,0,0,1-4.6-1.465.846.846,0,1,1,.981-1.375h0c.032,0,3.286,2.2,6.03.452a.852.852,0,1,1,.917,1.433,6.094,6.094,0,0,1-3.331.955Z" transform="translate(-56.877 -105.655)" fill="#fff" opacity="0.6"/>
      <path id="Tracé_951" data-name="Tracé 951" d="M404.9,118.572a8.954,8.954,0,0,1-4.6-1.42.847.847,0,0,1,.962-1.394h0c.032,0,3.292,2.195,6.036.452a.846.846,0,0,1,.91,1.427A6.03,6.03,0,0,1,404.9,118.572Z" transform="translate(-178.467 -93.257)" fill="#2d6ee0"/>
      <path id="Tracé_952" data-name="Tracé 952" d="M404.9,118.572a8.954,8.954,0,0,1-4.6-1.42.847.847,0,0,1,.962-1.394h0c.032,0,3.292,2.195,6.036.452a.846.846,0,0,1,.91,1.427A6.03,6.03,0,0,1,404.9,118.572Z" transform="translate(-178.467 -93.257)" fill="#fff" opacity="0.6"/>
      <path id="Tracé_953" data-name="Tracé 953" d="M243.342,220.6c-3.957,0-6.114-3.835-6.21-4.009a.848.848,0,0,1,1.485-.82c0,.052,1.937,3.434,5.165,3.105a.852.852,0,0,1,.174,1.691C243.762,220.585,243.549,220.6,243.342,220.6Z" transform="translate(-120.727 -128.602)" fill="#2d6ee0"/>
      <path id="Tracé_954" data-name="Tracé 954" d="M243.342,220.6c-3.957,0-6.114-3.835-6.21-4.009a.848.848,0,0,1,1.485-.82c0,.052,1.937,3.434,5.165,3.105a.852.852,0,0,1,.174,1.691C243.762,220.585,243.549,220.6,243.342,220.6Z" transform="translate(-120.727 -128.602)" fill="#fff" opacity="0.6"/>
      <path id="Tracé_955" data-name="Tracé 955" d="M78.54,246.581a.846.846,0,0,1-.2-1.666h0c.039,0,3.828-1,4.345-4.216a.847.847,0,1,1,1.672.271c-.691,4.332-5.41,5.539-5.61,5.591A1.117,1.117,0,0,1,78.54,246.581Z" transform="translate(-64.258 -137.342)" fill="#2d6ee0"/>
      <path id="Tracé_956" data-name="Tracé 956" d="M78.54,246.581a.846.846,0,0,1-.2-1.666h0c.039,0,3.828-1,4.345-4.216a.847.847,0,1,1,1.672.271c-.691,4.332-5.41,5.539-5.61,5.591A1.117,1.117,0,0,1,78.54,246.581Z" transform="translate(-64.258 -137.342)" opacity="0.6"/>
      <path id="Tracé_957" data-name="Tracé 957" d="M370.52,155.4a.846.846,0,0,1-.207-1.672h0c.039,0,3.828-.994,4.345-4.209a.852.852,0,1,1,1.678.271c-.7,4.332-5.416,5.539-5.616,5.584a.71.71,0,0,1-.2.026Z" transform="translate(-167.732 -105)" fill="#2d6ee0"/>
      <path id="Tracé_958" data-name="Tracé 958" d="M370.52,155.4a.846.846,0,0,1-.207-1.672h0c.039,0,3.828-.994,4.345-4.209a.852.852,0,1,1,1.678.271c-.7,4.332-5.416,5.539-5.616,5.584a.71.71,0,0,1-.2.026Z" transform="translate(-167.732 -105)" opacity="0.6"/>
      <path id="Tracé_959" data-name="Tracé 959" d="M421.354,205.5h-.142c-.207-.039-5-.917-5.984-5.165a.854.854,0,1,1,1.666-.374c.736,3.163,4.584,3.873,4.622,3.873a.852.852,0,0,1-.148,1.685Z" transform="translate(-183.88 -122.92)" fill="#2d6ee0"/>
      <path id="Tracé_960" data-name="Tracé 960" d="M398.87,255.495a6.2,6.2,0,0,1-4.054-1.427.846.846,0,1,1,1.085-1.291c2.5,2.079,6,.336,6.042.316a.849.849,0,0,1,.775,1.511A9.193,9.193,0,0,1,398.87,255.495Z" transform="translate(-176.527 -141.788)" fill="#2d6ee0"/>
      <path id="Tracé_961" data-name="Tracé 961" d="M337.619,88.742a.833.833,0,0,1-.42-.11c-.174-.1-4.39-2.537-3.873-6.895a.848.848,0,1,1,1.685.194c-.368,3.228,3.015,5.21,3.047,5.229a.846.846,0,0,1-.439,1.582Z" transform="translate(-154.844 -80.986)" fill="#2d6ee0"/>
      <path id="Tracé_962" data-name="Tracé 962" d="M78.306,94.884a.846.846,0,0,1-.071-1.691c3.228-.284,4.519-3.99,4.519-4.028a.846.846,0,0,1,1.607.523c-.058.2-1.607,4.816-5.978,5.165Z" transform="translate(-64.159 -83.688)" fill="#2d6ee0"/>
    </g>
    <g id="freepik--character-1--inject-92" transform="translate(98.923 89.287)">
      <path id="Tracé_963" data-name="Tracé 963" d="M164.948,134.116c-2.292,1.072-4.312,6.223-3.654,13.622s-14.667,2.208-16.753,10.5c-3.764,15,21.472,24.022,32.227,15,6.656-5.578,12.911-23.963,11.995-34C187.782,128.455,171.049,121.218,164.948,134.116Z" transform="translate(-130.132 -110.784)" fill="#263238"/>
      <path id="Tracé_964" data-name="Tracé 964" d="M213.87,152.493c.284-.084.7-.207,1.052-.323l1.11-.374c.742-.258,1.478-.542,2.208-.846a41.387,41.387,0,0,0,4.248-2.034,26.423,26.423,0,0,0,7.172-5.6,25.468,25.468,0,0,0,4.164-8.16c.523-1.524.962-3.092,1.336-4.687s.73-3.228,1-4.8l2.634.161a47.714,47.714,0,0,1-1.13,10.381,34.294,34.294,0,0,1-1.556,5.126,21.3,21.3,0,0,1-2.692,4.939,28.483,28.483,0,0,1-8.3,7.2,40.829,40.829,0,0,1-4.8,2.427c-.826.349-1.659.646-2.511.962-.42.148-.846.29-1.291.42s-.839.252-1.369.381Z" transform="translate(-154.838 -110.233)" fill="#7f3e3b"/>
      <path id="Tracé_965" data-name="Tracé 965" d="M250.656,125.124l1.1-3.944-4.358.336a5.659,5.659,0,0,0,1.194,4.138Z" transform="translate(-166.711 -108.642)" fill="#7f3e3b"/>
      <path id="Tracé_966" data-name="Tracé 966" d="M252.42,114.07l-3.977,1.039L247.41,119l4.358-.336Z" transform="translate(-166.726 -106.122)" fill="#7f3e3b"/>
      <path id="Tracé_967" data-name="Tracé 967" d="M205.887,167.008c2.008-1.827,7.1-3.228,7.1-3.228l5.584,8.392s-6.372,4.254-9.077,3.267C206.681,174.458,204.015,168.706,205.887,167.008Z" transform="translate(-151.787 -123.741)" fill="#2d6ee0"/>
      <path id="Tracé_968" data-name="Tracé 968" d="M177.74,349.784l3.48,3.822,9.987-7.114-3.48-3.822Z" transform="translate(-142.033 -187.145)" fill="#7f3e3b"/>
      <path id="Tracé_969" data-name="Tracé 969" d="M147.32,371.554l4.667,2.318,6.862-10.064-4.667-2.318Z" transform="translate(-131.251 -193.816)" fill="#7f3e3b"/>
      <path id="Tracé_970" data-name="Tracé 970" d="M150.98,377.155l-3.6-4.616a.413.413,0,0,0-.536-.11l-4.061,2.324a.833.833,0,0,0-.219,1.227c1.291,1.588,1.982,2.292,3.57,4.325.968,1.246,2.944,4.151,4.287,5.875s3.125.491,2.718-.349a15.118,15.118,0,0,1-1.872-7.792,1.349,1.349,0,0,0-.284-.884Z" transform="translate(-129.501 -197.674)" fill="#263238"/>
      <path id="Tracé_971" data-name="Tracé 971" d="M180.007,356.418l-2.376-5.707a.5.5,0,0,0-.529-.3l-5.035.646a.762.762,0,0,0-.613,1.072c.865,1.982,1.388,2.905,2.434,5.416.646,1.543,2.143,5.6,3.028,7.747s3.157,1.64,2.989.7c-.755-4.222-.5-6.946.129-8.605a1.252,1.252,0,0,0-.026-.962Z" transform="translate(-139.78 -189.886)" fill="#263238"/>
      <path id="Tracé_972" data-name="Tracé 972" d="M193.628,346.492l-5.145,3.667-3.893-3.525,5.558-3.964Z" transform="translate(-144.461 -187.145)" opacity="0.2"/>
      <path id="Tracé_973" data-name="Tracé 973" d="M156,361.49l4.667,2.318L157.127,369l-4.667-2.324Z" transform="translate(-133.073 -193.816)" opacity="0.2"/>
      <path id="Tracé_974" data-name="Tracé 974" d="M202.074,168.922s.155-.232-2.673,30.613l-21.11,1.478c-.245-8.612.4-14.693-3.622-32.388a62.1,62.1,0,0,1,8.993-1.136,66.787,66.787,0,0,1,9.606.052C197.394,167.934,202.074,168.922,202.074,168.922Z" transform="translate(-140.945 -125.003)" fill="#2d6ee0"/>
      <path id="Tracé_975" data-name="Tracé 975" d="M166.883,160.071c-1.569-.723-2.944-1.5-4.37-2.318s-2.776-1.7-4.119-2.627a49.645,49.645,0,0,1-7.585-6.339l-.852-.923-.219-.232a5.737,5.737,0,0,1-.355-.452,5.643,5.643,0,0,1-.516-.9,8.147,8.147,0,0,1-.646-3.189,20.742,20.742,0,0,1,.7-5.165,48.138,48.138,0,0,1,3.4-9.141l2.466.955c-.381,1.465-.742,2.989-1.065,4.48s-.594,3-.775,4.467a19.039,19.039,0,0,0-.168,4.183,3.873,3.873,0,0,0,.362,1.394c0,.045.065.1.084.1h0l.2.187.794.755a55.416,55.416,0,0,0,7.1,5.455c1.259.833,2.582,1.595,3.873,2.363s2.679,1.5,3.938,2.137Z" transform="translate(-131.57 -111.336)" fill="#7f3e3b"/>
      <path id="Tracé_976" data-name="Tracé 976" d="M180.526,169.356c-2.4-3.338-7.1-3.286-7.1-3.286l-5.675,8.392s6.333,4.312,9.038,3.35C179.654,176.793,182,171.409,180.526,169.356Z" transform="translate(-138.492 -124.552)" fill="#2d6ee0"/>
      <path id="Tracé_977" data-name="Tracé 977" d="M197.714,167.622l-9.606-.052c-1.472.594-2.324,4.422,7.424,7.663C202.291,171.392,198.7,167.977,197.714,167.622Z" transform="translate(-145.39 -125.084)" fill="#fff"/>
      <path id="Tracé_978" data-name="Tracé 978" d="M189.607,150.82c.587,3.092,1.162,8.76-1.007,10.813,0,0,.839,3.144,7.424,7.663,4.616-4.629,2.182-7.611,2.182-7.611-3.441-.846-3.338-3.4-2.724-5.81Z" transform="translate(-145.882 -119.147)" fill="#7f3e3b"/>
      <path id="Tracé_979" data-name="Tracé 979" d="M214.439,186.552h-.1a1.291,1.291,0,0,1-1.181-1.388c.232-2.879-1.937-5.055-4.429-7.579-2.86-2.886-6.107-6.159-6.236-11.252a1.292,1.292,0,1,1,2.582-.065c.1,4.067,2.84,6.83,5.487,9.5s5.494,5.539,5.165,9.6A1.291,1.291,0,0,1,214.439,186.552Z" transform="translate(-150.805 -124.177)" fill="#263238"/>
      <path id="Tracé_980" data-name="Tracé 980" d="M188.5,193.1a1.294,1.294,0,0,1-1.252-1.6c1.246-5.061-.387-9.038-2.117-13.221-1.549-3.757-3.15-7.644-2.376-12.188a1.291,1.291,0,0,1,2.544.439c-.646,3.809.742,7.192,2.214,10.768,1.73,4.19,3.686,8.941,2.24,14.848A1.291,1.291,0,0,1,188.5,193.1Z" transform="translate(-143.74 -124.194)" fill="#263238"/>
      <path id="Tracé_981" data-name="Tracé 981" d="M195.962,157l-2.582.3a5.881,5.881,0,0,0,.736,1.969,3.425,3.425,0,0,0,2.769,1.136,8.709,8.709,0,0,1,.323-2.363Z" transform="translate(-147.576 -121.338)" opacity="0.2"/>
      <path id="Tracé_982" data-name="Tracé 982" d="M181.027,140.672c1.892,4.816,2.582,6.895,5.881,8.612,4.958,2.582,10.458-.781,10.045-6.062-.368-4.758-3.4-11.833-8.838-12.234a7.056,7.056,0,0,0-7.088,9.684Z" transform="translate(-143.015 -112.111)" fill="#7f3e3b"/>
      <path id="Tracé_983" data-name="Tracé 983" d="M184.822,129.688c3.673,2.259.529,15.552-5.687,14.848S179.393,126.35,184.822,129.688Z" transform="translate(-141.626 -111.507)" fill="#263238"/>
      <path id="Tracé_984" data-name="Tracé 984" d="M188.488,129.534c-2.769,1.84-.878,5.042,8.457,3.144C196.945,132.671,193.084,126.474,188.488,129.534Z" transform="translate(-145.428 -111.302)" fill="#263238"/>
      <path id="Tracé_985" data-name="Tracé 985" d="M182.243,151.884a3.8,3.8,0,0,0,2.092,1.988c1.246.465,1.975-.646,1.73-1.853-.226-1.1-1.143-2.686-2.434-2.621a1.7,1.7,0,0,0-1.388,2.485Z" transform="translate(-143.559 -118.643)" fill="#7f3e3b"/>
      <path id="Tracé_986" data-name="Tracé 986" d="M203.413,217.21s11.3,36.881,12.208,52.749c.943,16.507-23.57,36.094-23.57,36.094l-6.1-6.695s19.916-16.914,17.185-29.167c-3.777-16.888-15.216-51.9-15.216-51.9Z" transform="translate(-144.943 -142.678)" fill="#263238"/>
      <path id="Tracé_987" data-name="Tracé 987" d="M199.822,235.04c-1.033-3.228-3.331-1.059-4.132,2.363,1.595,5.165,3.441,11.207,5.2,17.256C201.565,249.3,201.842,241.367,199.822,235.04Z" transform="translate(-148.395 -148.436)" opacity="0.2"/>
      <path id="Tracé_988" data-name="Tracé 988" d="M183.39,342.454l7.74,7.986,3.305-1.827-8.179-8.9Z" transform="translate(-144.035 -186.096)" fill="#2d6ee0"/>
      <path id="Tracé_989" data-name="Tracé 989" d="M186.047,217.82s-3.228,36.152-6.456,56.287c-2.615,16.268-20.374,42.84-20.374,42.84l-6.507-3.028s11.937-28.45,13.8-39.509c5.965-35.4-2.092-45.609,4.009-55.519Z" transform="translate(-133.161 -142.894)" fill="#263238"/>
      <path id="Tracé_990" data-name="Tracé 990" d="M152,364.9l7.34,3.6,2.408-2.989-8.586-4.048Z" transform="translate(-132.91 -193.808)" fill="#2d6ee0"/>
      <path id="Tracé_991" data-name="Tracé 991" d="M179.2,216.669l-.82,1.937c-.065.148.116.29.362.271l22.143-1.549c.187,0,.342-.116.342-.239l.058-1.937c0-.129-.168-.226-.374-.213l-21.381,1.5A.368.368,0,0,0,179.2,216.669Z" transform="translate(-142.256 -141.873)" fill="#fff"/>
      <path id="Tracé_992" data-name="Tracé 992" d="M183.935,219.5l-.568.039c-.116,0-.207-.045-.207-.116l.1-2.473c0-.071.1-.142.213-.148l.575-.039c.116,0,.207.045.2.116l-.1,2.473C184.148,219.433,184.051,219.5,183.935,219.5Z" transform="translate(-143.954 -142.519)" fill="#263238"/>
      <path id="Tracé_993" data-name="Tracé 993" d="M210.355,217.657l-.575.039c-.116,0-.207-.045-.2-.116l.1-2.473c0-.071.1-.136.213-.148l.568-.039c.116,0,.207.045.207.116l-.1,2.479C210.561,217.586,210.5,217.651,210.355,217.657Z" transform="translate(-153.318 -141.867)" fill="#263238"/>
      <path id="Tracé_994" data-name="Tracé 994" d="M197.145,218.587l-.575.039c-.11,0-.2-.045-.2-.116l.1-2.479c0-.071.1-.136.213-.142l.575-.039c.11,0,.2.045.2.116l-.1,2.473C197.358,218.529,197.261,218.574,197.145,218.587Z" transform="translate(-148.636 -142.196)" fill="#263238"/>
      <path id="Tracé_995" data-name="Tracé 995" d="M193.168,143.185c-.31.1-.439.568-.284,1.046l1.13-.362C193.859,143.391,193.478,143.056,193.168,143.185Z" transform="translate(-147.377 -116.431)" fill="#263238"/>
      <path id="Tracé_996" data-name="Tracé 996" d="M200.8,140.77c-.316.1-.445.575-.29,1.052l1.136-.368C201.45,140.977,201.082,140.673,200.8,140.77Z" transform="translate(-150.081 -115.579)" fill="#263238"/>
      <path id="Tracé_997" data-name="Tracé 997" d="M200.75,140.507l1.039-.7S201.492,140.895,200.75,140.507Z" transform="translate(-150.188 -115.245)" fill="#263238"/>
      <path id="Tracé_998" data-name="Tracé 998" d="M199,143.8a11.168,11.168,0,0,0,2.247,2.092,1.8,1.8,0,0,1-1.336.729Z" transform="translate(-149.568 -116.659)" fill="#630f0f"/>
      <path id="Tracé_999" data-name="Tracé 999" d="M197.3,150.923a.129.129,0,0,0,.039-.136.123.123,0,0,0-.155-.077,3.344,3.344,0,0,1-2.983-.4.123.123,0,0,0-.174,0,.116.116,0,0,0,0,.174,3.512,3.512,0,0,0,3.228.452Z" transform="translate(-147.792 -118.954)" fill="#263238"/>
      <path id="Tracé_1000" data-name="Tracé 1000" d="M190.607,141.718a.232.232,0,0,0,.071-.1,1.937,1.937,0,0,1,1.252-1.291.246.246,0,1,0-.116-.478,2.46,2.46,0,0,0-1.6,1.588.245.245,0,0,0,.155.31A.232.232,0,0,0,190.607,141.718Z" transform="translate(-146.449 -115.255)" fill="#263238"/>
      <path id="Tracé_1001" data-name="Tracé 1001" d="M201.5,137.29a.078.078,0,0,0,.032-.032.245.245,0,0,0-.039-.349,2.466,2.466,0,0,0-2.2-.484.245.245,0,0,0-.155.316.252.252,0,0,0,.31.155,1.937,1.937,0,0,1,1.737.4A.245.245,0,0,0,201.5,137.29Z" transform="translate(-149.613 -114.016)" fill="#263238"/>
      <path id="Tracé_1002" data-name="Tracé 1002" d="M151.533,124.176a.878.878,0,0,1-.445-.123l-19.638-12.1a.852.852,0,0,1,.891-1.446l19.638,12.1a.846.846,0,0,1-.445,1.569Z" transform="translate(-125.503 -104.827)" fill="#2d6ee0"/>
      <path id="Tracé_1003" data-name="Tracé 1003" d="M132.823,110.223c1.1-.045,2.24-.1,2.389-1.091s-.917-1.375-1.937-1.749l-.278-.1a1.079,1.079,0,0,0-.071-.284l.226-.252c.723-.8,1.478-1.627.891-2.414s-1.595-.323-2.582.136l-.3.142c-.084-.058-.168-.1-.258-.155s0-.207,0-.3c-.052-1.1-.1-2.234-1.091-2.382s-1.375.917-1.749,1.937c-.032.084-.065.181-.1.278l-.29.071-.245-.219c-.8-.729-1.627-1.478-2.414-.9s-.323,1.595.136,2.582l.142.3a2.652,2.652,0,0,0-.155.252h-.3c-1.1.052-2.24.1-2.389,1.1s.923,1.375,1.937,1.749l.278.1a1.078,1.078,0,0,0,.071.284c-.077.09-.155.181-.226.252-.723.8-1.472,1.62-.891,2.414s1.595.316,2.582-.136l.31-.142.252.155v.3c.052,1.1.1,2.234,1.091,2.382s1.382-.917,1.756-1.937a1.306,1.306,0,0,1,.1-.278,2.381,2.381,0,0,0,.29-.071l.252.226c.794.723,1.62,1.478,2.414.9s.316-1.595-.142-2.582c-.039-.084-.09-.194-.136-.3l.155-.252Z" transform="translate(-122.429 -101.758)" fill="#2d6ee0"/>
      <path id="Tracé_1004" data-name="Tracé 1004" d="M132.823,110.223c1.1-.045,2.24-.1,2.389-1.091s-.917-1.375-1.937-1.749l-.278-.1a1.079,1.079,0,0,0-.071-.284l.226-.252c.723-.8,1.478-1.627.891-2.414s-1.595-.323-2.582.136l-.3.142c-.084-.058-.168-.1-.258-.155s0-.207,0-.3c-.052-1.1-.1-2.234-1.091-2.382s-1.375.917-1.749,1.937c-.032.084-.065.181-.1.278l-.29.071-.245-.219c-.8-.729-1.627-1.478-2.414-.9s-.323,1.595.136,2.582l.142.3a2.652,2.652,0,0,0-.155.252h-.3c-1.1.052-2.24.1-2.389,1.1s.923,1.375,1.937,1.749l.278.1a1.078,1.078,0,0,0,.071.284c-.077.09-.155.181-.226.252-.723.8-1.472,1.62-.891,2.414s1.595.316,2.582-.136l.31-.142.252.155v.3c.052,1.1.1,2.234,1.091,2.382s1.382-.917,1.756-1.937a1.306,1.306,0,0,1,.1-.278,2.381,2.381,0,0,0,.29-.071l.252.226c.794.723,1.62,1.478,2.414.9s.316-1.595-.142-2.582c-.039-.084-.09-.194-.136-.3l.155-.252Z" transform="translate(-122.429 -101.758)" fill="#fff" opacity="0.7"/>
      <path id="Tracé_1005" data-name="Tracé 1005" d="M153.227,129.215l-.807-5.165,5.268,2.582a4.564,4.564,0,0,1-1.291,2.279,2.13,2.13,0,0,1-2.176.646Z" transform="translate(-133.058 -109.659)" fill="#7f3e3b"/>
      <path id="Tracé_1006" data-name="Tracé 1006" d="M155.377,120.13l2.7,2.369-.387,2.711-5.268-2.556Z" transform="translate(-133.058 -108.27)" fill="#7f3e3b"/>
      <path id="Tracé_1007" data-name="Tracé 1007" d="M157.217,382.577a1.371,1.371,0,0,0,.155-.129.413.413,0,0,0,.123-.407c-.155-.646-1.937-1.291-2.137-1.336a.11.11,0,0,0-.129.032.123.123,0,0,0,0,.136c.291.646.872,1.7,1.524,1.814a.646.646,0,0,0,.465-.11Zm-1.659-1.536c.7.265,1.614.717,1.7,1.059a.181.181,0,0,1-.065.174.465.465,0,0,1-.42.174C156.417,382.384,155.978,381.867,155.558,381.041Z" transform="translate(-134.047 -200.623)" fill="#2d6ee0"/>
      <path id="Tracé_1008" data-name="Tracé 1008" d="M157.529,380.411a.407.407,0,0,0,.11-.1.426.426,0,0,0,0-.542.646.646,0,0,0-.452-.31c-.742-.136-1.937.781-1.982.82a.129.129,0,0,0-.045.116.135.135,0,0,0,.071.1,3.267,3.267,0,0,0,2.3-.084Zm-1.937-.1a2.718,2.718,0,0,1,1.556-.607.374.374,0,0,1,.284.194c.084.136.045.207,0,.252a2.64,2.64,0,0,1-1.879.181Z" transform="translate(-134.029 -200.181)" fill="#2d6ee0"/>
      <path id="Tracé_1009" data-name="Tracé 1009" d="M184.66,363.257a2.021,2.021,0,0,0,.729,1.007.755.755,0,0,0,.646.058.355.355,0,0,0,.252-.271c.136-.646-1.556-2.24-1.9-2.582a.129.129,0,0,0-.142,0,.116.116,0,0,0-.058.129A7.8,7.8,0,0,0,184.66,363.257Zm1.343.484a.451.451,0,0,1,.045.239c0,.032,0,.065-.09.09a.536.536,0,0,1-.465-.039,3.428,3.428,0,0,1-.988-2.1A7.812,7.812,0,0,1,186,363.741Z" transform="translate(-144.317 -193.8)" fill="#2d6ee0"/>
      <path id="Tracé_1010" data-name="Tracé 1010" d="M184.212,361.619a.135.135,0,0,0,0,.039c.529.536,2.111,1.4,2.621,1.1.11-.065.226-.207.136-.516-.329-1.188-2.582-.813-2.692-.794a.116.116,0,0,0-.1.084A.129.129,0,0,0,184.212,361.619Zm2.518.613.032.077v.239c-.3.168-1.491-.387-2.124-.891.529-.058,1.808-.11,2.092.575Z" transform="translate(-144.315 -193.777)" fill="#2d6ee0"/>
      <path id="Tracé_1011" data-name="Tracé 1011" d="M193.16,142.924l1.039-.7S193.9,143.311,193.16,142.924Z" transform="translate(-147.498 -116.099)" fill="#263238"/>
    </g>
    <g id="freepik--character-2--inject-92" transform="translate(181.864 95.699)">
      <path id="Tracé_1012" data-name="Tracé 1012" d="M320.4,398.911l-5,.006-1.349-11.582,5-.006Z" transform="translate(-273.286 -209.386)" fill="#ffc3bd"/>
      <path id="Tracé_1013" data-name="Tracé 1013" d="M383.809,367.635l-3.789,3.273-8.58-7.9,3.783-3.273Z" transform="translate(-293.627 -199.607)" fill="#ffc3bd"/>
      <path id="Tracé_1014" data-name="Tracé 1014" d="M381.036,374.6l4.609-3.99a.42.42,0,0,1,.536,0l3.512,2.8a.768.768,0,0,1,0,1.175c-1.5,1.259-2.66,2.1-4.519,3.719-1.149.994-4.519,4.119-6.107,5.494s-3.092-.077-2.582-.788c2.389-3.176,3.873-5.991,4.106-7.663A1.291,1.291,0,0,1,381.036,374.6Z" transform="translate(-295.379 -203.424)" fill="#263238"/>
      <path id="Tracé_1015" data-name="Tracé 1015" d="M310,404.38h5.468a.439.439,0,0,1,.426.342l.994,4.448a.73.73,0,0,1-.717.891c-1.975-.032-4.822-.142-7.3-.142-2.892,0-4.59.077-7.986.084-2.053,0-2.627-2.072-1.769-2.26,3.912-.865,6.3-.872,9.684-2.963A2.311,2.311,0,0,1,310,404.38Z" transform="translate(-267.858 -215.429)" fill="#263238"/>
      <path id="Tracé_1016" data-name="Tracé 1016" d="M277.386,162.307c-1.007-.387-1.872-.742-2.776-1.156s-1.775-.82-2.653-1.252a57.656,57.656,0,0,1-5.165-2.879,48.645,48.645,0,0,1-4.9-3.434c-.394-.323-.794-.646-1.181-.975l-1.149-1.052c-.381-.349-.742-.749-1.11-1.123-.187-.207-.349-.355-.562-.6s-.42-.484-.607-.729a15.765,15.765,0,0,1-1.788-3.008,23.538,23.538,0,0,1-1.143-3,36.656,36.656,0,0,1-1.291-5.926,55.061,55.061,0,0,1-.291-11.659h3.757c.258,1.749.529,3.589.884,5.358s.729,3.538,1.188,5.242A37.4,37.4,0,0,0,260.24,141a14.022,14.022,0,0,0,2.279,3.873l.316.323c.1.1.291.258.433.387.31.265.594.542.923.794.646.516,1.291,1.026,2.014,1.517,1.394.968,2.866,1.892,4.4,2.757s3.105,1.685,4.7,2.46c.8.394,1.607.781,2.414,1.143s1.653.742,2.376,1.052Z" transform="translate(-251.503 -116.588)" fill="#ffc3bd"/>
      <path id="Tracé_1017" data-name="Tracé 1017" d="M287.824,180.21a58.442,58.442,0,0,1-8.044-6.017L281.775,164a93.1,93.1,0,0,0,11.291,2.466C299.36,167.279,292.31,182.883,287.824,180.21Z" transform="translate(-261.14 -130.23)" fill="#263238"/>
      <path id="Tracé_1018" data-name="Tracé 1018" d="M256.06,123.372l.355-6.372-5.294,1.7s-1.233,4.564,2.2,5.765Z" transform="translate(-250.906 -113.572)" fill="#ffc3bd"/>
      <path id="Tracé_1019" data-name="Tracé 1019" d="M255.895,111.69l-4.371,1.82-.284,3.305,5.294-1.7Z" transform="translate(-251.025 -111.69)" fill="#ffc3bd"/>
      <path id="Tracé_1020" data-name="Tracé 1020" d="M314.06,387.336l.691,5.972,5-.006-.691-5.971Z" transform="translate(-273.29 -209.386)" opacity="0.2"/>
      <path id="Tracé_1021" data-name="Tracé 1021" d="M375.229,359.74l-3.789,3.273,4.429,4.067,3.783-3.273Z" transform="translate(-293.627 -199.607)" opacity="0.2"/>
      <path id="Tracé_1022" data-name="Tracé 1022" d="M314.62,165.973A2.686,2.686,0,0,0,312,163.2c-14.28-.265-23.57,3.738-24.209,4a1.511,1.511,0,0,0-.923,1.143c-.594,3.576-2.279,18.567,5.978,42.027l26.468-3.789C318.958,202.673,314.026,184.752,314.62,165.973Z" transform="translate(-263.457 -129.943)" fill="#263238"/>
      <path id="Tracé_1023" data-name="Tracé 1023" d="M296.369,165.455c-1.569,2.1-2.279,6.933,2.918,10.471,6.391-4.771,9.684-9.9,10.658-12.576A66.381,66.381,0,0,0,296.369,165.455Z" transform="translate(-266.613 -130)" fill="#fff"/>
      <path id="Tracé_1024" data-name="Tracé 1024" d="M294.451,166.2a1.291,1.291,0,0,1-1.291-1.291,3.684,3.684,0,0,1,1.7-2.582c2.621-1.937,7.747-3.415,14.2-1.549a1.291,1.291,0,0,1-.717,2.479c-7.489-2.163-12.1.91-12.6,1.795A1.291,1.291,0,0,1,294.451,166.2Z" transform="translate(-265.882 -128.784)" fill="#2d6ee0"/>
      <path id="Tracé_1025" data-name="Tracé 1025" d="M306.9,144.34c-.194,3.725.045,10.465,2.924,12.518-1.691,2.24-3.944,4.868-8.225,5.636-2.582.458-3.467-.5-3.576-1.7a3.105,3.105,0,0,1,1.575-2.9c2.782-1.614,2.227-4.209,1.227-6.662Z" transform="translate(-267.605 -123.262)" fill="#ffc3bd"/>
      <path id="Tracé_1026" data-name="Tracé 1026" d="M292,197.812a1.24,1.24,0,0,1-.426-.077,1.291,1.291,0,0,1-.788-1.646,3.506,3.506,0,0,0-.1-2.821l-.136-.368a4.286,4.286,0,0,0-.865-1.162,4.2,4.2,0,0,1-1.1-5.2,3.48,3.48,0,0,0,.278-1.162,4.313,4.313,0,0,0-.587-1.291,5.107,5.107,0,0,1-.91-2.582,5.042,5.042,0,0,1,1.014-2.673,3.505,3.505,0,0,0,.516-.968,2.582,2.582,0,0,0-.207-1.046,3.874,3.874,0,0,1-.219-2.324A4.248,4.248,0,0,1,290,172.3a2.415,2.415,0,0,0,.536-.562,1.685,1.685,0,0,0,0-.955,2.957,2.957,0,0,1,.29-2.214c.452-.71.407-.891.368-1.039a2.193,2.193,0,0,1-.084-.7,1.291,1.291,0,1,1,2.582,0v.039a3.6,3.6,0,0,1-.646,3.028,3.935,3.935,0,0,0,.058.452,3.583,3.583,0,0,1-1.388,3.873c-.413.362-.646.581-.736.9a1.833,1.833,0,0,0,.174.865,4.745,4.745,0,0,1,.316,2.176,5,5,0,0,1-.9,2.046,3.112,3.112,0,0,0-.607,1.291,3.6,3.6,0,0,0,.562,1.259,6,6,0,0,1,.923,2.3,5.338,5.338,0,0,1-.394,2.272,3.228,3.228,0,0,0-.29,1.465,3.641,3.641,0,0,0,.859,1.181,6.243,6.243,0,0,1,1.394,2.053l.116.336a5.978,5.978,0,0,1,.11,4.551,1.291,1.291,0,0,1-1.239.9ZM293.687,166.967Z" transform="translate(-263.827 -130.776)" fill="#2d6ee0"/>
      <path id="Tracé_1027" data-name="Tracé 1027" d="M327.008,167.17c.7.646,1.291,1.188,1.885,1.808s1.175,1.22,1.749,1.84c1.149,1.239,2.234,2.544,3.279,3.873a41.962,41.962,0,0,1,5.429,8.986,26.829,26.829,0,0,1,.943,2.627c.136.452.252.923.362,1.4l.039.174.058.3a6.1,6.1,0,0,1,.077.646,6.351,6.351,0,0,1-.039,1.291,6.456,6.456,0,0,1-.691,2.208,8.573,8.573,0,0,1-1.091,1.6,11.619,11.619,0,0,1-2.4,2.079,22.034,22.034,0,0,1-4.868,2.389c-.813.3-1.633.549-2.46.762s-1.627.413-2.524.562l-1.162-3.57c.646-.362,1.336-.742,1.988-1.13s1.291-.794,1.937-1.2a23.828,23.828,0,0,0,3.376-2.582,6.954,6.954,0,0,0,1.052-1.291c.226-.368.207-.613.142-.536a.149.149,0,0,0,0,.065h0l-.039-.116c-.1-.3-.187-.6-.316-.91a18.365,18.365,0,0,0-.82-1.846,30.258,30.258,0,0,0-2.208-3.673c-.82-1.214-1.724-2.4-2.679-3.564s-1.937-2.3-2.976-3.434c-.51-.562-1.033-1.11-1.562-1.653s-1.085-1.11-1.556-1.562Z" transform="translate(-276.083 -131.354)" fill="#ffc3bd"/>
      <path id="Tracé_1028" data-name="Tracé 1028" d="M323.91,163.33c2.918.433,7.5,7.747,7.5,7.747l-7.43,9.961s-3.964-3.777-5.119-7.1C316.674,167.558,318.178,162.491,323.91,163.33Z" transform="translate(-274.651 -129.961)" fill="#263238"/>
      <path id="Tracé_1029" data-name="Tracé 1029" d="M317.951,187.7a1.291,1.291,0,0,1-1.1-.646,5.229,5.229,0,0,1-.555-2.815,3.506,3.506,0,0,0-.1-1.194,4.183,4.183,0,0,0-.962-1.046,5.087,5.087,0,0,1-1.672-2.156,4.965,4.965,0,0,1,.123-2.853,3.615,3.615,0,0,0,.187-1.085,4.208,4.208,0,0,0-.7-1.22,3.873,3.873,0,0,1-.213-5.165,3.726,3.726,0,0,0,.42-.846,4.268,4.268,0,0,0-.349-1.42,4.132,4.132,0,0,1-.362-2.453,5.933,5.933,0,0,1,1.717-3.112l.084-.084a1.291,1.291,0,0,1,1.859,1.788l-.148.148a3.5,3.5,0,0,0-1.014,1.892,5.882,5.882,0,0,0,.291.949,6.042,6.042,0,0,1,.5,2.479,4.616,4.616,0,0,1-.768,1.969,2.943,2.943,0,0,0-.536,1.291,3.809,3.809,0,0,0,.646,1.1,5.965,5.965,0,0,1,1.117,2.2,4.983,4.983,0,0,1-.213,2.227,3.228,3.228,0,0,0-.174,1.42,3.705,3.705,0,0,0,.936,1.02,6.069,6.069,0,0,1,1.595,1.9,5.248,5.248,0,0,1,.336,2.279,3.421,3.421,0,0,0,.187,1.485,1.287,1.287,0,0,1-1.123,1.95Z" transform="translate(-272.585 -129.256)" fill="#2d6ee0"/>
      <path id="Tracé_1030" data-name="Tracé 1030" d="M305.969,148.69l-3.589,4.074a11.82,11.82,0,0,1,.646,1.937c1.511-.445,3.389-2.44,3.325-4.08A5.507,5.507,0,0,0,305.969,148.69Z" transform="translate(-269.15 -124.804)" opacity="0.2"/>
      <path id="Tracé_1031" data-name="Tracé 1031" d="M295.758,127.654c-1.595,2.776-.575,6.727-.575,6.727a2.86,2.86,0,0,0,2.9.129l-.452-7.359Z" transform="translate(-266.486 -117.17)" fill="#263238"/>
      <path id="Tracé_1032" data-name="Tracé 1032" d="M307.552,134.176c-1.22,4.816-1.691,7.7-4.622,9.729-4.409,3.06-10-.31-10.239-5.391-.22-4.577,1.814-11.678,6.953-12.711a6.766,6.766,0,0,1,7.908,8.373Z" transform="translate(-265.711 -116.642)" fill="#ffc3bd"/>
      <path id="Tracé_1033" data-name="Tracé 1033" d="M286.838,143.767h-.174l-10.942-2.318a2.293,2.293,0,1,1,.949-4.487.842.842,0,1,1-.355,1.646.562.562,0,0,0-.452.084.594.594,0,0,0-.258.374.6.6,0,0,0,.458.71l10.942,2.318a.846.846,0,0,1-.174,1.672Z" transform="translate(-259.057 -120.63)" fill="#2d6ee0"/>
      <path id="Tracé_1034" data-name="Tracé 1034" d="M293.143,146.611l-1.323-.284.42-1.937,1.291.278a1.007,1.007,0,0,1,.775,1.194h0A1.02,1.02,0,0,1,293.143,146.611Z" transform="translate(-265.407 -123.28)" fill="#fff"/>
      <path id="Tracé_1035" data-name="Tracé 1035" d="M305.152,130.635c0-1.833-1.382-3.17-5.991-2.815-3.764.284-5.6-1.472-4.519-3.919,3.047,1.588,2.544-.491,8.354-.742s7.5,1.937,8.108,5.339c3.557,5.274-2.582,7.463-2.582,7.463l-2.4,2.1a2.853,2.853,0,0,1-2.763-.884S302.886,132.894,305.152,130.635Z" transform="translate(-266.299 -115.748)" fill="#263238"/>
      <path id="Tracé_1036" data-name="Tracé 1036" d="M301.189,121.619l-.148.077a.891.891,0,0,0-.052,1.543l13.479,8.334a.891.891,0,0,0,1.349-.646h0a2.15,2.15,0,0,0-.994-2.15l-11.491-7.1A2.156,2.156,0,0,0,301.189,121.619Z" transform="translate(-268.508 -115.118)" fill="#2d6ee0"/>
      <path id="Tracé_1037" data-name="Tracé 1037" d="M305.29,120.2l3.447-5.048a.684.684,0,0,1,.917-.2l9.516,5.7a.678.678,0,0,1,.194,1l-4.125,5.449Z" transform="translate(-270.182 -112.813)" fill="#2d6ee0"/>
      <path id="Tracé_1038" data-name="Tracé 1038" d="M305.29,121.79l1.375-2.46,10.626,7.024-2.053,2.337Z" transform="translate(-270.182 -114.398)" fill="#2d6ee0"/>
      <path id="Tracé_1039" data-name="Tracé 1039" d="M305.29,121.79l1.375-2.46,10.626,7.024-2.053,2.337Z" transform="translate(-270.182 -114.398)" fill="#fff" opacity="0.6"/>
      <path id="Tracé_1040" data-name="Tracé 1040" d="M314.259,146.053a4.383,4.383,0,0,1-3.228.7c-1.465-.284-1.465-1.769-.452-2.821.91-.949,2.776-1.937,3.951-1.117A1.945,1.945,0,0,1,314.259,146.053Z" transform="translate(-271.804 -122.613)" fill="#ffc3bd"/>
      <path id="Tracé_1041" data-name="Tracé 1041" d="M306.327,337.272h8.47s-1.33-30.122-3.157-45.6c-.555-4.713.045-11.168.1-18.379.077-9.083.5-18.98.91-26.746.439-8.179.807-14.073.807-14.073l-17.327,2.473s-1.717,42.885.975,57.914C299.91,308.466,306.327,337.272,306.327,337.272Z" transform="translate(-266.745 -154.498)" fill="#2d6ee0"/>
      <path id="Tracé_1042" data-name="Tracé 1042" d="M318.827,279.09c.077-9.083.5-18.98.91-26.746l-2.582-3.454C313.966,254.862,316.18,270.762,318.827,279.09Z" transform="translate(-273.828 -160.318)" opacity="0.2"/>
      <path id="Tracé_1043" data-name="Tracé 1043" d="M309.22,233.008s10.762,42.5,15.875,56.242c5.6,15.042,26.21,32.627,26.21,32.627l5.21-5.733s-10.9-17-18.941-33.35c-3.841-21.233-10.116-52.394-10.116-52.394Z" transform="translate(-271.575 -153.765)" fill="#2d6ee0"/>
      <path id="Tracé_1044" data-name="Tracé 1044" d="M371.568,368.23l8.166-7.056-2.111-2.434-9.264,7.727Z" transform="translate(-292.536 -199.252)" fill="#263238"/>
      <path id="Tracé_1045" data-name="Tracé 1045" d="M309.918,393.228l10.1-.013-.006-3.26L308.73,389.8Z" transform="translate(-271.401 -210.261)" fill="#263238"/>
      <path id="Tracé_1046" data-name="Tracé 1046" d="M303.729,137.38c-.323-.1-.7.213-.859.7l1.149.368C304.174,137.961,304.045,137.484,303.729,137.38Z" transform="translate(-269.324 -120.789)" fill="#263238"/>
      <path id="Tracé_1047" data-name="Tracé 1047" d="M296.046,135.92c-.329,0-.646.374-.646.884l1.2.077C296.62,136.372,296.381,135.972,296.046,135.92Z" transform="translate(-266.676 -120.278)" fill="#263238"/>
      <path id="Tracé_1048" data-name="Tracé 1048" d="M297.7,138.2a14.505,14.505,0,0,1-2.537,3.034,2.337,2.337,0,0,0,1.833.71Z" transform="translate(-266.591 -121.086)" fill="#ed847e"/>
      <path id="Tracé_1049" data-name="Tracé 1049" d="M305.919,135.552a.265.265,0,0,0,.123,0,.239.239,0,0,0,.155-.3,2.343,2.343,0,0,0-1.472-1.582.226.226,0,0,0-.291.161.232.232,0,0,0,.161.291h0a1.885,1.885,0,0,1,1.149,1.291A.252.252,0,0,0,305.919,135.552Z" transform="translate(-269.875 -119.478)" fill="#263238"/>
      <path id="Tracé_1050" data-name="Tracé 1050" d="M293.976,134.215a.239.239,0,0,0,.213-.071,1.892,1.892,0,0,1,1.582-.646.239.239,0,0,0,.271-.2.232.232,0,0,0-.194-.265,2.35,2.35,0,0,0-2.008.8.232.232,0,0,0,0,.336A.265.265,0,0,0,293.976,134.215Z" transform="translate(-266.098 -119.251)" fill="#263238"/>
      <path id="Tracé_1051" data-name="Tracé 1051" d="M381.637,378.927a6.051,6.051,0,0,0,.878-1,.116.116,0,0,0,0-.129.1.1,0,0,0-.116-.058c-.207,0-2.046.3-2.285.891a.4.4,0,0,0,.052.394.691.691,0,0,0,.581.329,1.465,1.465,0,0,0,.891-.426Zm.516-.9c-.536.691-1.052,1.091-1.4,1.091a.458.458,0,0,1-.387-.232.142.142,0,0,1,0-.155c.09-.3,1.052-.575,1.788-.7Z" transform="translate(-296.691 -205.985)" fill="#2d6ee0"/>
      <path id="Tracé_1052" data-name="Tracé 1052" d="M382.532,377.372a.154.154,0,0,0,.039-.058.136.136,0,0,0,0-.123c-.045-.045-1.033-1.1-1.769-1.091a.646.646,0,0,0-.478.213h0a.4.4,0,0,0-.09.491c.265.5,1.7.71,2.272.594Zm-2.027-.93a.4.4,0,0,1,.271-.1,2.811,2.811,0,0,1,1.427.839c-.646.032-1.633-.2-1.795-.5a.189.189,0,0,1,.058-.207h0Z" transform="translate(-296.727 -205.405)" fill="#2d6ee0"/>
      <path id="Tracé_1053" data-name="Tracé 1053" d="M313.765,404.865a.116.116,0,0,0,.077-.1.11.11,0,0,0-.058-.123c-.232-.116-2.24-1.136-2.847-.794a.374.374,0,0,0-.2.316h0a.646.646,0,0,0,.226.575c.549.484,1.982.284,2.789.123Zm-2.673-.826a5.082,5.082,0,0,1,2.266.646,3.169,3.169,0,0,1-2.24-.136.42.42,0,0,1-.142-.381.136.136,0,0,1,.077-.123Z" transform="translate(-272.111 -215.217)" fill="#2d6ee0"/>
      <path id="Tracé_1054" data-name="Tracé 1054" d="M314.449,404.224h.032a.136.136,0,0,0,.052-.11,3.452,3.452,0,0,0-.781-1.937.859.859,0,0,0-.646-.2h0a.388.388,0,0,0-.439.329c-.09.568,1.1,1.646,1.711,1.937a.129.129,0,0,0,.071-.019ZM313,402.229h.123a.607.607,0,0,1,.478.155,2.757,2.757,0,0,1,.646,1.536c-.613-.368-1.433-1.214-1.375-1.556A.149.149,0,0,1,313,402.229Zm.11-.142Z" transform="translate(-272.795 -214.575)" fill="#2d6ee0"/>
      <path id="Tracé_1055" data-name="Tracé 1055" d="M325.906,211.54l-4.816,1.524,3.738,3.718s4.364-1.892,3-3.815Z" transform="translate(-275.782 -147.08)" fill="#ffc3bd"/>
      <path id="Tracé_1056" data-name="Tracé 1056" d="M318.02,218.148l3.428,2.079,2.292-2.608L320,213.9Z" transform="translate(-274.694 -147.916)" fill="#ffc3bd"/>
    </g>
  </g>
</svg>
