<svg xmlns="http://www.w3.org/2000/svg" width="97.263" height="94.808" viewBox="0 0 97.263 94.808">
  <g id="Curious-rafiki" transform="translate(-56.11 -49.57)">
    <g id="freepik--background-simple--inject-169" transform="translate(63.35 59.583)">
      <path id="Tracé_1572" data-name="Tracé 1572" d="M115.656,100.709c10.534,1.959,27.543-3.582,32.128,8.631,3.848,10.241-3.953,17.936,4.9,26.715,6.456,6.4,16.825,17.427,4.279,24.154-9.815,5.267-23.6,4.492-33.758.783-7.971-2.912-24.1-11.6-24.56-21.3-.517-10.9,15.97-16.494.6-23.662C90,111.717,79.4,103.312,88.372,92.2c3.539-4.382,7.226-2.759,10.958,0C104.841,96.292,108.413,99.362,115.656,100.709Z" transform="translate(-84.975 -89.489)" fill="#2d6ee0"/>
      <path id="Tracé_1573" data-name="Tracé 1573" d="M115.656,100.709c10.534,1.959,27.543-3.582,32.128,8.631,3.848,10.241-3.953,17.936,4.9,26.715,6.456,6.4,16.825,17.427,4.279,24.154-9.815,5.267-23.6,4.492-33.758.783-7.971-2.912-24.1-11.6-24.56-21.3-.517-10.9,15.97-16.494.6-23.662C90,111.717,79.4,103.312,88.372,92.2c3.539-4.382,7.226-2.759,10.958,0C104.841,96.292,108.413,99.362,115.656,100.709Z" transform="translate(-84.975 -89.489)" fill="#fff" opacity="0.9"/>
    </g>
    <g id="freepik--Shadow--inject-169" transform="translate(56.11 138.699)">
      <ellipse id="freepik--path--inject-169" cx="48.632" cy="2.839" rx="48.632" ry="2.839" transform="translate(0)" fill="#f5f5f5"/>
    </g>
    <g id="freepik--Character--inject-169" transform="translate(67.47 59.425)">
      <path id="Tracé_1581" data-name="Tracé 1581" d="M297.408,103.8a49.906,49.906,0,0,0-6.22,2.19,2.861,2.861,0,0,0,.055-.484c-.11.2-.221.394-.329.594l-.08.033a2.9,2.9,0,0,0-.045-.642,1.849,1.849,0,0,1-.359.78.34.34,0,0,1-.028.035l-.426.173a5.424,5.424,0,0,0,0-1.292,8.962,8.962,0,0,1-.2,1.211c-.015.06-.028.12-.045.183l-.554.228c-.038-.153-.078-.306-.118-.459l-.2.6-.231.1a3.933,3.933,0,0,0-.158-.68,5.105,5.105,0,0,1-.135.8l-.188.08a6.5,6.5,0,0,0-.145-1.224c-.038.314-.075.622-.11.933l-.053.419c-.825.351-1.342.579-1.342.579s-.06-2.985,0-7.51.961-8.227,2.807-10.033,5.784-2.124,7.643-.519,2.383,5.373,1.678,9.052C298.218,101.079,302.156,102.707,297.408,103.8Z" transform="translate(-240.053 -88.858)" fill="#263238"/>
      <path id="Tracé_1582" data-name="Tracé 1582" d="M264.053,223.07l.176-.534a1.5,1.5,0,0,1,.88-.931l2.32-.915,1.161.567a6.411,6.411,0,0,1-1.741,2.546l-.364.4a1.031,1.031,0,0,1-1.254.236l-.873-.5A.712.712,0,0,1,264.053,223.07Z" transform="translate(-223.222 -187.624)" fill="#b55b52"/>
      <path id="Tracé_1583" data-name="Tracé 1583" d="M284.117,165.73c-.045.424-.093.8-.151,1.184s-.125.77-.193,1.151c-.143.752-.306,1.525-.5,2.282s-.406,1.5-.65,2.257-.527,1.492-.835,2.23l-.043.1a1.224,1.224,0,0,1-.251.379,12.819,12.819,0,0,1-1.691,1.422c-.562.416-1.139.788-1.713,1.149s-1.161.695-1.756,1-1.186.627-1.813.908a.863.863,0,0,1-.933-1.427h.013c.484-.434.986-.865,1.477-1.292s.988-.853,1.47-1.282.958-.858,1.412-1.284a13.546,13.546,0,0,0,1.209-1.269l-.291.479c.213-.67.406-1.349.584-2.042s.336-1.395.479-2.1.281-1.417.4-2.132l.178-1.068.163-1.046v-.05a1.724,1.724,0,0,1,3.419.444Z" transform="translate(-230.186 -144.99)" fill="#b55b52"/>
      <path id="Tracé_1584" data-name="Tracé 1584" d="M301.256,152.29c-4.7.577-5.5,9.531-5.074,11.33.662,1.548,3.544.752,3.544.752S304.293,157.58,301.256,152.29Z" transform="translate(-247.251 -136.38)" fill="#263238"/>
      <path id="Tracé_1585" data-name="Tracé 1585" d="M299.673,196.707a2.976,2.976,0,0,1-.421.72.113.113,0,0,1-.053.038,3.969,3.969,0,0,1-3.569-.228.145.145,0,0,1-.058-.07,3.114,3.114,0,0,1-.191-1.214.148.148,0,0,1,.2-.135,11.008,11.008,0,0,0,3.95.685.148.148,0,0,1,.145.206Z" transform="translate(-246.725 -168.983)" fill="#fff"/>
      <path id="Tracé_1586" data-name="Tracé 1586" d="M386.269,406.94c2.29,0,2.122-.035,3.406-.08,1.1-.038,1.374.1,2.257.08.74-.018.66-.725.369-1.54-.146-.409-.359-.91-.567-1.57h-3.481a3.157,3.157,0,0,1-2.571,1.756C384.461,405.746,385.354,406.94,386.269,406.94Z" transform="translate(-313.932 -324.829)" fill="#263238"/>
      <path id="Tracé_1587" data-name="Tracé 1587" d="M311.772,399.119c2.912,0,3.19-1.254,4.264-1.919.928-.567,1.3-.409,2.257-.951.635-.356.354-1.141-.156-1.56a6.852,6.852,0,0,1-1.237-1.3l-2.839,1.254c-.156,1.144-.692,3.07-2.4,3.19C310.443,397.932,310.872,399.119,311.772,399.119Z" transform="translate(-258.36 -317.007)" fill="#263238"/>
      <path id="Tracé_1588" data-name="Tracé 1588" d="M297.97,217.691s-5.518,14.046-6.25,21.011c-.02,5.769,7.974,22.948,7.974,22.948.251.429,2.543-.805,2.839-1.254-2.945-7.188-1.4-16.183-4.053-21.46,5.694-8.1,10.111-23.075,10.111-23.075Z" transform="translate(-243.984 -184.005)" fill="#2d6ee0"/>
      <path id="Tracé_1589" data-name="Tracé 1589" d="M312.659,233.3a.063.063,0,1,1-.015-.125,2.879,2.879,0,0,0,1.718-1.116.063.063,0,0,1,.085-.02.06.06,0,0,1,.02.085,2.94,2.94,0,0,1-1.8,1.174Z" transform="translate(-259.618 -196.123)" fill="#fff" opacity="0.2"/>
      <path id="Tracé_1590" data-name="Tracé 1590" d="M333.239,246.067c-1.229,2.488-1.422,6.2-1.324,9.045a97.794,97.794,0,0,0,4.106-9.546l-.013-.013a1.756,1.756,0,0,0-2.769.514Z" transform="translate(-274.08 -205.901)" opacity="0.2"/>
      <path id="Tracé_1591" data-name="Tracé 1591" d="M329.33,216.31s1.467,13.12,4.379,22.072c1.455,4.465,9.757,14.605,12.772,23.793a6.35,6.35,0,0,0,3.481,0s-4.633-20.194-9.621-24.442c-.015-10.913.376-16.18-2.007-22.993Z" transform="translate(-272.16 -183.166)" fill="#2d6ee0"/>
      <path id="Tracé_1592" data-name="Tracé 1592" d="M365.72,272.4a.063.063,0,0,1-.063-.05c-2.062-12.192-9.446-22.825-9.531-22.922a.083.083,0,0,1,0-.043c0-.013.128-1.5.251-7.048.12-5.217-.361-10.878-.421-11.56a5.841,5.841,0,0,1-3.86-.647.063.063,0,0,1-.018-.088.065.065,0,0,1,.088-.018,5.783,5.783,0,0,0,3.835.617.055.055,0,0,1,.048,0,.068.068,0,0,1,.028.045c0,.06.554,6.1.426,11.643-.123,5.177-.251,6.827-.251,7.036.351.5,7.5,10.976,9.531,22.953a.063.063,0,0,1-.053.073Z" transform="translate(-289.194 -194.607)" fill="#fff" opacity="0.2"/>
      <path id="Tracé_1593" data-name="Tracé 1593" d="M395.046,397.649a9.6,9.6,0,0,1,.251,1.287.381.381,0,0,0,.316.316,12.437,12.437,0,0,0,3.644-.2.183.183,0,0,0,.151-.221l-.156-1.2a.376.376,0,0,0-.359-.309l-3.659.07a.193.193,0,0,0-.188.258Z" transform="translate(-321.385 -319.952)" fill="#2d6ee0"/>
      <path id="Tracé_1594" data-name="Tracé 1594" d="M395.046,397.649a9.6,9.6,0,0,1,.251,1.287.381.381,0,0,0,.316.316,12.437,12.437,0,0,0,3.644-.2.183.183,0,0,0,.151-.221l-.156-1.2a.376.376,0,0,0-.359-.309l-3.659.07a.193.193,0,0,0-.188.258Z" transform="translate(-321.385 -319.952)" opacity="0.2"/>
      <path id="Tracé_1595" data-name="Tracé 1595" d="M320.2,388.972c.113.316.311.883.444,1.307a.266.266,0,0,0,.331.176,18.56,18.56,0,0,0,3.118-1.425.266.266,0,0,0,.13-.283L324,387.53a.266.266,0,0,0-.361-.2l-3.283,1.3A.266.266,0,0,0,320.2,388.972Z" transform="translate(-265.31 -312.454)" fill="#2d6ee0"/>
      <path id="Tracé_1596" data-name="Tracé 1596" d="M320.2,388.972c.113.316.311.883.444,1.307a.266.266,0,0,0,.331.176,18.56,18.56,0,0,0,3.118-1.425.266.266,0,0,0,.13-.283L324,387.53a.266.266,0,0,0-.361-.2l-3.283,1.3A.266.266,0,0,0,320.2,388.972Z" transform="translate(-265.31 -312.454)" opacity="0.2"/>
      <path id="Tracé_1597" data-name="Tracé 1597" d="M315.2,212.09a4.579,4.579,0,0,1-.394,1.482,10.38,10.38,0,0,0,3.97.73c.186-.3.3-1.1.446-1.43a2.922,2.922,0,0,0,.878,1.447,19.926,19.926,0,0,0,3.281-.324c3.825-.717,4.728-1.906,4.728-1.906s-.732-2.207-.941-3.01C325.194,209.228,315.307,209.516,315.2,212.09Z" transform="translate(-261.282 -178.926)" fill="#fff"/>
      <path id="Tracé_1598" data-name="Tracé 1598" d="M301.547,151.118a55.959,55.959,0,0,0,1.944,5.322c1.492,3.838,1.141,4.683,1.527,6.258a9.551,9.551,0,0,0,3.353.645,5.174,5.174,0,0,1,.682-1.119,5.133,5.133,0,0,0,1.781.823c2.438-.376,5.583-1.322,6.687-2.491-.84-3.391-1.144-7.088-1.635-15.222a2.887,2.887,0,0,0-3.567-2.724c-.479.115-.983.251-1.5.4a38.976,38.976,0,0,0-5.3,1.856c-.557.251-1.129.534-1.673.813A4.658,4.658,0,0,0,301.547,151.118Z" transform="translate(-251.202 -129.066)" fill="#263238"/>
      <path id="Tracé_1599" data-name="Tracé 1599" d="M382.993,215.686l-.379-.416a1.5,1.5,0,0,1-.371-1.224l.359-2.471,1.069-.725a6.418,6.418,0,0,1,1.344,2.772l.166.5a1.038,1.038,0,0,1-.411,1.2l-.875.5a.71.71,0,0,1-.9-.138Z" transform="translate(-311.79 -180.252)" fill="#b55b52"/>
      <path id="Tracé_1600" data-name="Tracé 1600" d="M355.6,150.87c.324.3.594.567.878.858s.547.579.815.873c.529.592,1.041,1.2,1.53,1.831s.958,1.274,1.4,1.944.86,1.362,1.254,2.072l.05.09a1.1,1.1,0,0,1,.088.211,13.208,13.208,0,0,1,.4,2.175c.08.692.115,1.377.143,2.054s.028,1.354.013,2.029-.045,1.342-.11,2.027a.863.863,0,0,1-1.7.1v-.015c-.138-.637-.251-1.287-.389-1.926s-.251-1.279-.384-1.911-.268-1.254-.414-1.864a13.054,13.054,0,0,0-.5-1.678l.138.3c-.4-.594-.815-1.181-1.254-1.756s-.9-1.141-1.372-1.7-.956-1.106-1.452-1.643l-.752-.8c-.251-.251-.5-.537-.74-.765l-.028-.03a1.723,1.723,0,0,1,2.4-2.476Z" transform="translate(-289.654 -134.953)" fill="#b55b52"/>
      <path id="Tracé_1601" data-name="Tracé 1601" d="M344.2,142.289c4.432-1.665,9.28,5.894,9.742,7.7.128,1.678-2.8,2.3-2.8,2.3S343.959,148.394,344.2,142.289Z" transform="translate(-283.298 -128.709)" fill="#263238"/>
      <path id="Tracé_1602" data-name="Tracé 1602" d="M321.063,156.767a.158.158,0,0,1-.135-.078.155.155,0,0,1,.058-.213,10.212,10.212,0,0,0,2.508-2.957.156.156,0,0,1,.211-.07.158.158,0,0,1,.07.211,10.811,10.811,0,0,1-2.644,3.088.153.153,0,0,1-.068.02Z" transform="translate(-265.85 -137.235)" fill="#2d6ee0"/>
      <path id="Tracé_1603" data-name="Tracé 1603" d="M315.538,157.377a.181.181,0,0,1-.08-.02,3.273,3.273,0,0,1-1.2-2.844.158.158,0,1,1,.314.023,2.982,2.982,0,0,0,1.043,2.551.156.156,0,0,1-.08.291Z" transform="translate(-260.864 -137.923)" fill="#2d6ee0"/>
      <path id="Tracé_1604" data-name="Tracé 1604" d="M319.2,121.55c.293,1.849,1.071,5.089,2.576,5.839,0,0-1.7.321-4.387,3.644-1.492-1.079-.913-1.791-.913-1.791,1.776-1.131,1.38-2.328.582-3.512Z" transform="translate(-262.45 -113.35)" fill="#b55b52"/>
      <path id="Tracé_1605" data-name="Tracé 1605" d="M322.73,146.341c1.186-.236,2.137,1.347,2.137,1.347a18.849,18.849,0,0,0,2.428-4.515,11.789,11.789,0,0,1-1.211-.283A24.763,24.763,0,0,0,322.73,146.341Z" transform="translate(-267.216 -129.338)" fill="#fff"/>
      <path id="Tracé_1606" data-name="Tracé 1606" d="M314.351,152.558a2.267,2.267,0,0,0-.753,2.1c-1.129-2.4-.113-3.228-.113-3.228a1.53,1.53,0,0,1,.968-.5A1.282,1.282,0,0,0,314.351,152.558Z" transform="translate(-259.976 -135.361)" fill="#fff"/>
      <path id="Tracé_1607" data-name="Tracé 1607" d="M320.4,128.35l-1.269,2.476a5.7,5.7,0,0,1,.5.87,2.32,2.32,0,0,0,.767-3.346Z" transform="translate(-264.519 -118.445)" opacity="0.2"/>
      <path id="Tracé_1608" data-name="Tracé 1608" d="M299.385,127.587H298.8a.067.067,0,0,1-.065-.083l.291-1.342a.065.065,0,0,1,.065-.053h0a.07.07,0,0,1,.068.053l.291,1.342a.07.07,0,0,1-.013.058.075.075,0,0,1-.053.025Zm-.5-.138h.419l-.206-.948Z" transform="translate(-249.238 -116.767)" fill="#fff"/>
      <path id="Tracé_1609" data-name="Tracé 1609" d="M304.072,96.78c.692,2.887,1.043,4.091.1,6.047-1.427,2.945-5.016,3.336-6.536.752-1.367-2.323-2.257-6.654.083-8.761A3.791,3.791,0,0,1,304.072,96.78Z" transform="translate(-247.391 -92.521)" fill="#b55b52"/>
      <path id="Tracé_1610" data-name="Tracé 1610" d="M295.044,95.973c2.656-.519,4.264-3.093,5.518-3.01-.191,1.951,1.339,4.156,2.847,4.209,2.039.07.15-4.941-1.219-5.734C300.745,90.593,294.575,90.533,295.044,95.973Z" transform="translate(-246.455 -90.475)" fill="#263238"/>
      <path id="Tracé_1611" data-name="Tracé 1611" d="M318,102.63a1.069,1.069,0,0,1-.625-.218c-.921-.66-1.477-2.709-1.124-4.136a.138.138,0,1,1,.266.065c-.324,1.312.188,3.261,1.016,3.848a.752.752,0,0,0,.9.028.135.135,0,0,1,.188.04.138.138,0,0,1-.04.191A1.086,1.086,0,0,1,318,102.63Z" transform="translate(-262.28 -95.822)" fill="#263238"/>
      <path id="Tracé_1612" data-name="Tracé 1612" d="M309.66,114.1c.068.251,0,.477-.145.532s-.326-.1-.394-.336,0-.479.145-.532S309.593,113.864,309.66,114.1Z" transform="translate(-257.001 -107.512)" fill="#263238"/>
      <ellipse id="Ellipse_138" data-name="Ellipse 138" cx="0.286" cy="0.451" rx="0.286" ry="0.451" transform="matrix(0.973, -0.23, 0.23, 0.973, 49.217, 7.372)" fill="#263238"/>
      <path id="Tracé_1613" data-name="Tracé 1613" d="M297.154,118l-.594.033S296.969,118.374,297.154,118Z" transform="translate(-247.61 -110.691)" fill="#263238"/>
      <path id="Tracé_1614" data-name="Tracé 1614" d="M302.666,119.79a7.348,7.348,0,0,1-.376,1.826.991.991,0,0,0,.858-.135Z" transform="translate(-251.903 -112.032)" fill="#a02724"/>
      <path id="Tracé_1615" data-name="Tracé 1615" d="M310.173,124.629a2.227,2.227,0,0,1-.4.108.068.068,0,0,1-.078-.06.078.078,0,0,1,.063-.085,2.064,2.064,0,0,0,1.455-1.046.075.075,0,0,1,.1-.04.073.073,0,0,1,.033.1,2.187,2.187,0,0,1-1.171,1.026Z" transform="translate(-257.453 -114.812)" fill="#263238"/>
      <path id="Tracé_1616" data-name="Tracé 1616" d="M327.106,112.063a2.047,2.047,0,0,1-.936,1.362c-.612.341-1.091-.341-1.063-1.149.025-.73.374-1.786,1.058-1.786S327.266,111.318,327.106,112.063Z" transform="translate(-268.996 -105.064)" fill="#b55b52"/>
      <path id="Tracé_1617" data-name="Tracé 1617" d="M305.329,108.749a.138.138,0,0,1,.09-.063,1.063,1.063,0,0,0,.813-.6.13.13,0,0,1,.181-.073.158.158,0,0,1,.08.2,1.334,1.334,0,0,1-1.018.775.145.145,0,0,1-.163-.123A.156.156,0,0,1,305.329,108.749Z" transform="translate(-254.164 -103.196)" fill="#263238"/>
      <path id="Tracé_1618" data-name="Tracé 1618" d="M294.765,112.146a.128.128,0,0,1-.105,0,.143.143,0,0,1-.07-.191,1.528,1.528,0,0,1,.988-.923.135.135,0,0,1,.161.115.158.158,0,0,1-.118.176,1.214,1.214,0,0,0-.775.737A.145.145,0,0,1,294.765,112.146Z" transform="translate(-246.124 -105.469)" fill="#263238"/>
      <path id="Tracé_1619" data-name="Tracé 1619" d="M308.284,113.75l-.594.033S308.1,114.131,308.284,113.75Z" transform="translate(-255.948 -107.507)" fill="#263238"/>
      <path id="Tracé_1620" data-name="Tracé 1620" d="M318.453,162.025a3.607,3.607,0,0,1,.685-.065.268.268,0,0,1,.251.2c.073.251.208.707.288.926.113.314-.775.958-.775.958s-.732-.349-.752-.81a6.041,6.041,0,0,1,.073-.976.268.268,0,0,1,.231-.228Z" transform="translate(-263.784 -143.625)" fill="#2d6ee0"/>
      <path id="Tracé_1621" data-name="Tracé 1621" d="M319.93,174.766c-.06-1.447-1-8.056-1-8.056l-.7.088c-.053.941-.552,6.592-.552,8.089a6.434,6.434,0,0,0,1.279,3.17A7.716,7.716,0,0,0,319.93,174.766Z" transform="translate(-263.425 -147.183)" fill="#2d6ee0"/>
      <path id="Tracé_1622" data-name="Tracé 1622" d="M369.551,174.658a3.01,3.01,0,0,0,.707.444.143.143,0,0,0,.065,0,3.988,3.988,0,0,0,3.058-1.854.166.166,0,0,0,.02-.09,3.145,3.145,0,0,0-.394-1.164.148.148,0,0,0-.236-.03,11,11,0,0,1-3.185,2.433.148.148,0,0,0-.035.261Z" transform="translate(-302.246 -151.086)" fill="#fff"/>
      <path id="Tracé_1623" data-name="Tracé 1623" d="M236.883,221.859l-1.232,2.508a.971.971,0,0,1-1.347.416l-15.874-8.947,1.4-2.837,16.587,7.56a.971.971,0,0,1,.469,1.3Z" transform="translate(-189.076 -181.863)" fill="#2d6ee0"/>
      <path id="Tracé_1624" data-name="Tracé 1624" d="M236.883,221.859l-1.232,2.508a.971.971,0,0,1-1.347.416l-15.874-8.947,1.4-2.837,16.587,7.56a.971.971,0,0,1,.469,1.3Z" transform="translate(-189.076 -181.863)" opacity="0.4"/>
      <path id="Tracé_1625" data-name="Tracé 1625" d="M147.379,145.227c-.02-.05-.038-.1-.055-.145-.068-.176-.14-.349-.216-.522l-.033-.068c-.065-.15-.135-.3-.208-.446-.025-.053-.053-.1-.08-.156-.063-.125-.128-.251-.2-.374-.028-.045-.053-.093-.078-.14-.093-.166-.191-.329-.291-.5l-.035-.055c-.09-.143-.183-.286-.278-.426l-.1-.145c-.08-.115-.166-.231-.251-.346l-.1-.133c-.118-.153-.238-.306-.361-.454l-.038-.043c-.113-.135-.231-.268-.349-.4l-.12-.13c-.1-.105-.2-.211-.3-.314l-.12-.123q-.211-.208-.429-.406l-.03-.028c-.138-.125-.278-.251-.424-.366l-.138-.113-.351-.276-.14-.108q-.251-.181-.5-.354h-.018c-.163-.108-.329-.216-.5-.319l-.161-.1c-.128-.078-.251-.153-.394-.228l-.163-.09c-.183-.1-.366-.2-.557-.291-6.7-3.291-14.608-.936-17.645,5.267l-1,2.007c3.037-6.19,10.941-8.545,17.648-5.255.188.093.374.191.554.288.055.03.11.06.163.093.133.073.266.15.4.228l.158.1c.168.105.334.211.5.321l.018.013c.171.115.334.233.5.354l.14.108c.118.09.236.181.349.273l.143.115c.143.12.283.251.421.364l.03.028c.148.133.288.271.429.409.043.04.08.08.12.12.1.1.2.208.3.314l.12.133c.12.13.236.251.349.4l.038.043q.186.223.361.451l.1.135c.085.113.168.228.251.346.033.048.068.1.1.145.1.14.188.281.278.424.013.02.025.038.035.058.1.161.2.326.291.5l.078.143c.068.123.133.251.2.374l.078.155c.073.148.143.3.208.444.013.023.023.048.033.07.075.171.148.346.216.519l.055.145c.05.133.1.251.14.394.02.055.038.11.055.166.05.151.1.3.14.454a.405.405,0,0,0,.025.085c.05.178.1.359.135.537a.807.807,0,0,0,.033.15q.045.2.083.406a1.389,1.389,0,0,0,.03.173c.028.15.05.3.07.456a.25.25,0,0,0,.013.1c.025.183.043.366.058.549v.151q.015.208.023.414v.9c0,.168-.015.339-.03.5,0,.08-.018.161-.025.251q-.023.213-.053.429a1.276,1.276,0,0,1-.043.251c-.023.138-.048.276-.075.411-.018.088-.038.176-.055.251-.033.14-.068.281-.105.419-.025.088-.048.176-.073.266l-.06.193c-.038.123-.078.251-.12.366-.023.068-.048.133-.073.2-.045.125-.1.251-.148.376-.023.058-.045.115-.07.173-.078.181-.158.361-.251.539l.991-2.019c.088-.178.168-.359.251-.539.025-.058.048-.115.07-.173.053-.125.1-.251.148-.376.025-.065.048-.133.073-.2.043-.123.083-.251.12-.366l.06-.2.03-.1c.015-.055.028-.113.043-.171.035-.138.073-.276.1-.416.02-.088.04-.173.058-.251.028-.138.053-.276.075-.411.015-.088.03-.176.043-.251.02-.143.038-.286.053-.431,0-.08.018-.161.025-.251.015-.168.023-.336.03-.5v-.9a2.575,2.575,0,0,0-.023-.416v-.148a4.516,4.516,0,0,0-.055-.552.256.256,0,0,0-.013-.1c-.02-.15-.043-.3-.07-.456l-.03-.171q-.038-.2-.083-.406a.647.647,0,0,0-.033-.151c-.043-.181-.088-.361-.135-.539a.838.838,0,0,1-.025-.085c-.045-.15-.09-.3-.14-.451-.018-.055-.035-.11-.055-.166A3.669,3.669,0,0,0,147.379,145.227Z" transform="translate(-116.616 -124.284)" fill="#2d6ee0"/>
      <path id="Tracé_1626" data-name="Tracé 1626" d="M147.379,145.227c-.02-.05-.038-.1-.055-.145-.068-.176-.14-.349-.216-.522l-.033-.068c-.065-.15-.135-.3-.208-.446-.025-.053-.053-.1-.08-.156-.063-.125-.128-.251-.2-.374-.028-.045-.053-.093-.078-.14-.093-.166-.191-.329-.291-.5l-.035-.055c-.09-.143-.183-.286-.278-.426l-.1-.145c-.08-.115-.166-.231-.251-.346l-.1-.133c-.118-.153-.238-.306-.361-.454l-.038-.043c-.113-.135-.231-.268-.349-.4l-.12-.13c-.1-.105-.2-.211-.3-.314l-.12-.123q-.211-.208-.429-.406l-.03-.028c-.138-.125-.278-.251-.424-.366l-.138-.113-.351-.276-.14-.108q-.251-.181-.5-.354h-.018c-.163-.108-.329-.216-.5-.319l-.161-.1c-.128-.078-.251-.153-.394-.228l-.163-.09c-.183-.1-.366-.2-.557-.291-6.7-3.291-14.608-.936-17.645,5.267l-1,2.007c3.037-6.19,10.941-8.545,17.648-5.255.188.093.374.191.554.288.055.03.11.06.163.093.133.073.266.15.4.228l.158.1c.168.105.334.211.5.321l.018.013c.171.115.334.233.5.354l.14.108c.118.09.236.181.349.273l.143.115c.143.12.283.251.421.364l.03.028c.148.133.288.271.429.409.043.04.08.08.12.12.1.1.2.208.3.314l.12.133c.12.13.236.251.349.4l.038.043q.186.223.361.451l.1.135c.085.113.168.228.251.346.033.048.068.1.1.145.1.14.188.281.278.424.013.02.025.038.035.058.1.161.2.326.291.5l.078.143c.068.123.133.251.2.374l.078.155c.073.148.143.3.208.444.013.023.023.048.033.07.075.171.148.346.216.519l.055.145c.05.133.1.251.14.394.02.055.038.11.055.166.05.151.1.3.14.454a.405.405,0,0,0,.025.085c.05.178.1.359.135.537a.807.807,0,0,0,.033.15q.045.2.083.406a1.389,1.389,0,0,0,.03.173c.028.15.05.3.07.456a.25.25,0,0,0,.013.1c.025.183.043.366.058.549v.151q.015.208.023.414v.9c0,.168-.015.339-.03.5,0,.08-.018.161-.025.251q-.023.213-.053.429a1.276,1.276,0,0,1-.043.251c-.023.138-.048.276-.075.411-.018.088-.038.176-.055.251-.033.14-.068.281-.105.419-.025.088-.048.176-.073.266l-.06.193c-.038.123-.078.251-.12.366-.023.068-.048.133-.073.2-.045.125-.1.251-.148.376-.023.058-.045.115-.07.173-.078.181-.158.361-.251.539l.991-2.019c.088-.178.168-.359.251-.539.025-.058.048-.115.07-.173.053-.125.1-.251.148-.376.025-.065.048-.133.073-.2.043-.123.083-.251.12-.366l.06-.2.03-.1c.015-.055.028-.113.043-.171.035-.138.073-.276.1-.416.02-.088.04-.173.058-.251.028-.138.053-.276.075-.411.015-.088.03-.176.043-.251.02-.143.038-.286.053-.431,0-.08.018-.161.025-.251.015-.168.023-.336.03-.5v-.9a2.575,2.575,0,0,0-.023-.416v-.148a4.516,4.516,0,0,0-.055-.552.256.256,0,0,0-.013-.1c-.02-.15-.043-.3-.07-.456l-.03-.171q-.038-.2-.083-.406a.647.647,0,0,0-.033-.151c-.043-.181-.088-.361-.135-.539a.838.838,0,0,1-.025-.085c-.045-.15-.09-.3-.14-.451-.018-.055-.035-.11-.055-.166A3.669,3.669,0,0,0,147.379,145.227Z" transform="translate(-116.616 -124.284)" opacity="0.4"/>
      <path id="Tracé_1627" data-name="Tracé 1627" d="M112.514,178.258c-.251-.12-.484-.251-.72-.374l-.211-.118c-.173-.1-.344-.2-.5-.3l-.206-.123c-.218-.135-.434-.273-.645-.416l-.025-.015q-.329-.226-.64-.459l-.186-.14c-.153-.115-.3-.236-.454-.356l-.181-.148c-.186-.156-.369-.311-.547-.472l-.04-.035c-.191-.173-.376-.349-.557-.529l-.158-.158c-.133-.133-.251-.268-.389-.406l-.158-.171c-.156-.171-.306-.344-.454-.517l-.045-.055c-.163-.193-.319-.389-.469-.587l-.13-.173c-.11-.148-.218-.3-.324-.449l-.13-.188c-.125-.183-.251-.366-.361-.552l-.048-.075c-.13-.208-.251-.421-.376-.635-.035-.06-.068-.123-.1-.186q-.133-.238-.251-.482c-.035-.068-.07-.135-.1-.2-.093-.191-.183-.381-.271-.574,0-.03-.028-.06-.043-.093-.1-.221-.191-.446-.278-.672-.025-.063-.048-.128-.07-.191-.065-.168-.125-.339-.183-.5-.025-.073-.05-.143-.073-.216q-.093-.291-.181-.587a.5.5,0,0,0-.033-.11c-.065-.231-.123-.464-.176-.7-.015-.065-.03-.13-.043-.193-.04-.176-.075-.354-.108-.529a1.362,1.362,0,0,0-.04-.221q-.048-.3-.09-.594a.3.3,0,0,0-.018-.123c-.03-.236-.053-.474-.07-.712v-.193c-.013-.181-.023-.359-.028-.539v-1.169c0-.218.02-.439.04-.657,0-.1.023-.208.033-.314q.03-.278.068-.557c.018-.11.035-.223.055-.336q.045-.266.1-.534c.023-.113.048-.226.073-.339q.063-.271.135-.542c.033-.115.06-.231.1-.344s.05-.168.078-.251c.05-.158.1-.316.156-.474.033-.088.063-.173.093-.251.063-.166.125-.326.193-.5l.09-.223c.1-.236.208-.469.321-.7l-1,2.007c-.113.233-.218.467-.319.7-.033.075-.063.15-.093.223-.068.163-.13.326-.191.5-.033.085-.063.173-.093.251-.055.158-.108.316-.158.477-.028.083-.053.168-.078.251a.6.6,0,0,1-.038.125c-.01.043-.038.145-.055.221-.05.181-.1.359-.138.539-.025.113-.048.226-.073.339q-.053.266-.1.534c-.02.113-.038.226-.055.339q-.038.278-.068.557c0,.1-.023.208-.033.314-.018.218-.03.436-.04.655V165.2c0,.178.015.359.028.537v.193c.018.251.043.477.07.715a.3.3,0,0,0,.018.123c.028.2.058.4.09.592.013.075.028.148.04.223.033.176.068.351.108.527a.911.911,0,0,0,.043.2c.053.233.113.467.176.7l.033.108c.058.2.118.394.181.589.023.073.048.143.073.213.058.171.118.341.183.5.023.065.048.128.07.193.09.226.181.449.278.672.015.03.03.06.043.09.088.193.178.386.271.577l.1.2q.125.251.251.482l.1.186c.12.213.251.424.376.635l.048.075q.173.278.361.549l.13.188c.105.15.213.3.324.449l.13.173c.153.2.309.4.469.589l.045.053c.148.176.3.349.454.519l.158.168c.128.138.251.273.391.409l.156.158c.183.178.366.356.557.527l.038.035q.271.251.549.474l.183.148c.148.12.3.238.451.356l.186.14c.208.156.421.309.64.456l.025.015c.211.143.426.281.645.416l.206.125c.168.1.339.2.5.3l.211.118q.354.2.722.376c8.691,4.264,18.932,1.214,22.875-6.815l.988-2.019C131.448,179.474,121.207,182.524,112.514,178.258Z" transform="translate(-101.4 -139.16)" fill="#2d6ee0"/>
      <path id="Tracé_1628" data-name="Tracé 1628" d="M112.514,178.258c-.251-.12-.484-.251-.72-.374l-.211-.118c-.173-.1-.344-.2-.5-.3l-.206-.123c-.218-.135-.434-.273-.645-.416l-.025-.015q-.329-.226-.64-.459l-.186-.14c-.153-.115-.3-.236-.454-.356l-.181-.148c-.186-.156-.369-.311-.547-.472l-.04-.035c-.191-.173-.376-.349-.557-.529l-.158-.158c-.133-.133-.251-.268-.389-.406l-.158-.171c-.156-.171-.306-.344-.454-.517l-.045-.055c-.163-.193-.319-.389-.469-.587l-.13-.173c-.11-.148-.218-.3-.324-.449l-.13-.188c-.125-.183-.251-.366-.361-.552l-.048-.075c-.13-.208-.251-.421-.376-.635-.035-.06-.068-.123-.1-.186q-.133-.238-.251-.482c-.035-.068-.07-.135-.1-.2-.093-.191-.183-.381-.271-.574,0-.03-.028-.06-.043-.093-.1-.221-.191-.446-.278-.672-.025-.063-.048-.128-.07-.191-.065-.168-.125-.339-.183-.5-.025-.073-.05-.143-.073-.216q-.093-.291-.181-.587a.5.5,0,0,0-.033-.11c-.065-.231-.123-.464-.176-.7-.015-.065-.03-.13-.043-.193-.04-.176-.075-.354-.108-.529a1.362,1.362,0,0,0-.04-.221q-.048-.3-.09-.594a.3.3,0,0,0-.018-.123c-.03-.236-.053-.474-.07-.712v-.193c-.013-.181-.023-.359-.028-.539v-1.169c0-.218.02-.439.04-.657,0-.1.023-.208.033-.314q.03-.278.068-.557c.018-.11.035-.223.055-.336q.045-.266.1-.534c.023-.113.048-.226.073-.339q.063-.271.135-.542c.033-.115.06-.231.1-.344s.05-.168.078-.251c.05-.158.1-.316.156-.474.033-.088.063-.173.093-.251.063-.166.125-.326.193-.5l.09-.223c.1-.236.208-.469.321-.7l-1,2.007c-.113.233-.218.467-.319.7-.033.075-.063.15-.093.223-.068.163-.13.326-.191.5-.033.085-.063.173-.093.251-.055.158-.108.316-.158.477-.028.083-.053.168-.078.251a.6.6,0,0,1-.038.125c-.01.043-.038.145-.055.221-.05.181-.1.359-.138.539-.025.113-.048.226-.073.339q-.053.266-.1.534c-.02.113-.038.226-.055.339q-.038.278-.068.557c0,.1-.023.208-.033.314-.018.218-.03.436-.04.655V165.2c0,.178.015.359.028.537v.193c.018.251.043.477.07.715a.3.3,0,0,0,.018.123c.028.2.058.4.09.592.013.075.028.148.04.223.033.176.068.351.108.527a.911.911,0,0,0,.043.2c.053.233.113.467.176.7l.033.108c.058.2.118.394.181.589.023.073.048.143.073.213.058.171.118.341.183.5.023.065.048.128.07.193.09.226.181.449.278.672.015.03.03.06.043.09.088.193.178.386.271.577l.1.2q.125.251.251.482l.1.186c.12.213.251.424.376.635l.048.075q.173.278.361.549l.13.188c.105.15.213.3.324.449l.13.173c.153.2.309.4.469.589l.045.053c.148.176.3.349.454.519l.158.168c.128.138.251.273.391.409l.156.158c.183.178.366.356.557.527l.038.035q.271.251.549.474l.183.148c.148.12.3.238.451.356l.186.14c.208.156.421.309.64.456l.025.015c.211.143.426.281.645.416l.206.125c.168.1.339.2.5.3l.211.118q.354.2.722.376c8.691,4.264,18.932,1.214,22.875-6.815l.988-2.019C131.448,179.474,121.207,182.524,112.514,178.258Z" transform="translate(-101.4 -139.16)" opacity="0.4"/>
      <path id="Tracé_1629" data-name="Tracé 1629" d="M130.838,120.739l-.138-.211a17.28,17.28,0,0,1,1.939-1.1l.11.226A16.58,16.58,0,0,0,130.838,120.739Zm3.79-1.856-.083-.236a18.674,18.674,0,0,1,9.28-.692l-.043.251A18.468,18.468,0,0,0,134.628,118.883Z" transform="translate(-123.351 -110.437)" fill="#2d6ee0"/>
      <path id="Tracé_1630" data-name="Tracé 1630" d="M106.792,129.9c3.94-8.026,14.179-11.076,22.872-6.81s12.541,14.232,8.606,22.258-14.181,11.081-22.875,6.815S102.851,137.926,106.792,129.9Zm27.881,13.682c3.037-6.19.068-13.883-6.639-17.174s-14.608-.936-17.645,5.267-.065,13.883,6.639,17.174,14.6.938,17.645-5.267" transform="translate(-104.281 -113.059)" fill="#2d6ee0"/>
      <path id="Tracé_1631" data-name="Tracé 1631" d="M240.134,213.786l-1.254,2.538a.968.968,0,0,1-1.322.429l-16.128-8.493,1.648-3.341,16.584,7.56a.968.968,0,0,1,.472,1.307Z" transform="translate(-191.324 -175.809)" fill="#2d6ee0"/>
      <path id="Tracé_1632" data-name="Tracé 1632" d="M145.919,154.2c3.1-6.308.07-14.146-6.772-17.5s-14.886-.953-17.984,5.355-.065,14.149,6.772,17.5,14.884.958,17.981-5.358" transform="translate(-115.296 -123.569)" fill="#fff" opacity="0.1"/>
      <path id="Tracé_1633" data-name="Tracé 1633" d="M139.183,136.812a14.721,14.721,0,0,0-5.385-1.472l-13.667,10.226a12.383,12.383,0,0,0,.329,5.267Z" transform="translate(-115.325 -123.681)" fill="#fff" opacity="0.1"/>
      <path id="Tracé_1634" data-name="Tracé 1634" d="M269.712,221.255c-1.018-.366-1.718.311-2.423.662-.12.06-.085.416.155.451a1.106,1.106,0,0,0,.855-.148,1.34,1.34,0,0,0,1.806-.078A1.372,1.372,0,0,0,269.712,221.255Z" transform="translate(-225.63 -187.968)" fill="#b55b52"/>
      <path id="Tracé_1635" data-name="Tracé 1635" d="M328.855,122.367h-.582a.068.068,0,0,1-.068-.083l.291-1.339a.07.07,0,0,1,.068-.055h0a.065.065,0,0,1,.065.055l.291,1.339a.068.068,0,0,1-.013.058A.063.063,0,0,1,328.855,122.367Zm-.5-.135h.411l-.206-.948Z" transform="translate(-271.316 -112.856)" fill="#fff"/>
    </g>
    <g id="freepik--question-marks--inject-169" transform="translate(100.696 49.57)">
      <path id="Tracé_1636" data-name="Tracé 1636" d="M241.364,82.014l-1.422,2.257-.226-.143a3.311,3.311,0,0,1-.855-.72,2.508,2.508,0,0,1-.411-.805,14.547,14.547,0,0,1-.314-1.821,1.222,1.222,0,0,0-.416-.933.778.778,0,0,0-.63-.118.988.988,0,0,0-.549.472,1.106,1.106,0,0,0-.161.873,1.929,1.929,0,0,0,.752.968l-1.741,2.127a3.725,3.725,0,0,1-1.465-2.215A4.062,4.062,0,0,1,234.71,79a4.338,4.338,0,0,1,1.859-1.756,2.659,2.659,0,0,1,2.631.145,2.257,2.257,0,0,1,.8.893,5.7,5.7,0,0,1,.429,1.864,3.662,3.662,0,0,0,.286,1.239A1.831,1.831,0,0,0,241.364,82.014Zm-.87,2.714,1.522-2.418,2.134,1.344-1.525,2.42Z" transform="translate(-233.872 -70.092)" fill="#2d6ee0"/>
      <path id="Tracé_1637" data-name="Tracé 1637" d="M334.493,55.595l-1.881-1.023.1-.188a2.661,2.661,0,0,1,.532-.72,2.007,2.007,0,0,1,.622-.371,11.775,11.775,0,0,1,1.447-.354.982.982,0,0,0,.725-.381.62.62,0,0,0,.07-.5.78.78,0,0,0-.406-.416.893.893,0,0,0-.707-.085,1.568,1.568,0,0,0-.735.652l-1.791-1.274a2.982,2.982,0,0,1,1.7-1.287,3.278,3.278,0,0,1,2.408.474,3.484,3.484,0,0,1,1.5,1.4,2.137,2.137,0,0,1,.018,2.112,1.786,1.786,0,0,1-.675.685,4.5,4.5,0,0,1-1.47.439,2.872,2.872,0,0,0-.976.293,1.447,1.447,0,0,0-.484.549Zm-2.217-.559,2.007,1.1-.966,1.776-2.007-1.1Z" transform="translate(-306.871 -49.57)" fill="#2d6ee0"/>
      <path id="Tracé_1638" data-name="Tracé 1638" d="M348.845,83.305l-.5-1.6.161-.05a2.079,2.079,0,0,1,.692-.113,1.505,1.505,0,0,1,.549.13,8.853,8.853,0,0,1,1,.592.767.767,0,0,0,.615.181.5.5,0,0,0,.319-.251.625.625,0,0,0,0-.454.7.7,0,0,0-.351-.434,1.229,1.229,0,0,0-.767-.035l-.309-1.7a2.338,2.338,0,0,1,1.655.2A2.562,2.562,0,0,1,353,81.356a2.712,2.712,0,0,1,.078,1.6,1.668,1.668,0,0,1-1.146,1.189,1.379,1.379,0,0,1-.752.018,3.582,3.582,0,0,1-1.066-.554,2.258,2.258,0,0,0-.707-.369A1.159,1.159,0,0,0,348.845,83.305Zm-.941-1.522.534,1.713-1.5.472-.534-1.713Z" transform="translate(-318.176 -71.998)" fill="#2d6ee0"/>
    </g>
  </g>
</svg>
