<svg xmlns="http://www.w3.org/2000/svg" width="266.69" height="233.043" viewBox="0 0 266.69 233.043">
  <g id="No_data-rafiki" data-name="No data-rafiki" transform="translate(-56.11 -88.704)">
    <g id="freepik--background-simple--inject-5" transform="translate(107.06 88.704)">
      <path id="Tracé_872" data-name="Tracé 872" d="M206.034,115.11c33.08,3.7,47.6-24.979,80.382-21.223,29.256,3.349,49.434,24.195,42.605,52.268-6.066,24.924-34.944,32.743-45.212,56.092-10.887,24.758-19.325,51.436-52.2,60.053-64.544,16.918-95.9-62.5-100.292-108.119-1.685-17.51-4.628-59.372,18.232-64.791C172.556,83.928,185.767,112.841,206.034,115.11Z" transform="translate(-130.193 -88.704)" fill="#2d6ee0"/>
      <path id="Tracé_873" data-name="Tracé 873" d="M206.034,115.11c33.08,3.7,47.6-24.979,80.382-21.223,29.256,3.349,49.434,24.195,42.605,52.268-6.066,24.924-34.944,32.743-45.212,56.092-10.887,24.758-19.325,51.436-52.2,60.053-64.544,16.918-95.9-62.5-100.292-108.119-1.685-17.51-4.628-59.372,18.232-64.791C172.556,83.928,185.767,112.841,206.034,115.11Z" transform="translate(-130.193 -88.704)" fill="#fff" opacity="0.9"/>
    </g>
    <g id="freepik--Shadow--inject-5" transform="translate(56.11 306.177)">
      <ellipse id="freepik--path--inject-5" cx="133.345" cy="7.785" rx="133.345" ry="7.785" fill="#f5f5f5"/>
    </g>
    <g id="freepik--window-no-data--inject-5" transform="translate(88.442 131.836)">
      <rect id="Rectangle_308" data-name="Rectangle 308" width="0.688" height="12.716" transform="translate(0 35.083) rotate(-4.12)" fill="#2d6ee0"/>
      <rect id="Rectangle_309" data-name="Rectangle 309" width="0.688" height="4.787" transform="translate(1.38 54.314) rotate(-4.12)" fill="#2d6ee0"/>
      <path id="Tracé_874" data-name="Tracé 874" d="M264.593,264.03H117.308a6.637,6.637,0,0,1-6.492-6.059l-7.235-100.5a5.571,5.571,0,0,1,5.619-6.052H256.485a6.637,6.637,0,0,1,6.492,6.052l7.235,100.5a5.577,5.577,0,0,1-5.619,6.059Z" transform="translate(-103.259 -151.419)" fill="#2d6ee0"/>
      <path id="Tracé_875" data-name="Tracé 875" d="M265.413,264.03H118.128a6.637,6.637,0,0,1-6.492-6.059l-7.235-100.5a5.571,5.571,0,0,1,5.619-6.052H257.3a6.637,6.637,0,0,1,6.492,6.052l7.235,100.5a5.571,5.571,0,0,1-5.619,6.059Z" transform="translate(-103.515 -151.419)" fill="#2d6ee0"/>
      <path id="Tracé_876" data-name="Tracé 876" d="M265.413,264.03H118.128a6.637,6.637,0,0,1-6.492-6.059l-7.235-100.5a5.571,5.571,0,0,1,5.619-6.052H257.3a6.637,6.637,0,0,1,6.492,6.052l7.235,100.5a5.571,5.571,0,0,1-5.619,6.059Z" transform="translate(-103.515 -151.419)" fill="#fff" opacity="0.5"/>
      <path id="Tracé_877" data-name="Tracé 877" d="M258.842,155.82H111.062c-3.762.309-2.992,6.038.8,6.038H259.4c3.8,0,3.748-5.729-.062-6.038Z" transform="translate(-104.833 -152.794)" fill="#2d6ee0"/>
      <path id="Tracé_878" data-name="Tracé 878" d="M117.217,159.6a1.272,1.272,0,0,1-1.293,1.375,1.513,1.513,0,0,1-1.486-1.375,1.272,1.272,0,0,1,1.286-1.375,1.513,1.513,0,0,1,1.492,1.375Z" transform="translate(-106.655 -153.543)" fill="#fafafa"/>
      <path id="Tracé_879" data-name="Tracé 879" d="M124.087,159.6a1.272,1.272,0,0,1-1.293,1.375,1.513,1.513,0,0,1-1.486-1.375,1.272,1.272,0,0,1,1.286-1.375,1.513,1.513,0,0,1,1.492,1.375Z" transform="translate(-108.8 -153.543)" fill="#fafafa"/>
      <path id="Tracé_880" data-name="Tracé 880" d="M130.949,159.6a1.272,1.272,0,0,1-1.286,1.375,1.506,1.506,0,0,1-1.486-1.375,1.265,1.265,0,0,1,1.286-1.375,1.513,1.513,0,0,1,1.486,1.375Z" transform="translate(-110.945 -153.543)" fill="#fafafa"/>
      <path id="Tracé_881" data-name="Tracé 881" d="M265.109,261.059H124.227a2.4,2.4,0,0,1-2.352-2.2l-5.949-82.645a2.008,2.008,0,0,1,2.063-2.194H258.906a2.393,2.393,0,0,1,2.352,2.194l5.956,82.645a2.022,2.022,0,0,1-2.1,2.2Z" transform="translate(-107.118 -158.476)" fill="#fff"/>
      <path id="Tracé_882" data-name="Tracé 882" d="M233.649,238.437l-2.3-31.856-6.946-4.181H205.28l2.6,36.037Z" transform="translate(-135.023 -167.339)" fill="#fff"/>
      <path id="Tracé_883" data-name="Tracé 883" d="M233.5,238.614H207.729a.33.33,0,0,1-.337-.309L204.8,202.268a.323.323,0,0,1,.089-.248.33.33,0,0,1,.241-.11h19.126a.379.379,0,0,1,.172.048l6.946,4.181a.33.33,0,0,1,.165.261l2.283,31.856a.316.316,0,0,1-.089.254A.323.323,0,0,1,233.5,238.614Zm-25.446-.688h25.082L230.879,206.6l-6.685-4.023H205.487Z" transform="translate(-134.872 -167.186)" fill="#2d6ee0"/>
      <path id="Tracé_884" data-name="Tracé 884" d="M240.036,206.581,233.09,202.4l2.552,5.543Z" transform="translate(-143.707 -167.339)" fill="#ebebeb"/>
      <path id="Tracé_885" data-name="Tracé 885" d="M235.49,208.12a.337.337,0,0,1-.3-.193l-2.551-5.543a.332.332,0,0,1,.475-.426l6.946,4.181a.344.344,0,0,1,.165.33.337.337,0,0,1-.234.275l-4.4,1.375Zm-1.795-5.034,1.974,4.3,3.439-1.052Z" transform="translate(-143.555 -167.186)" fill="#2d6ee0"/>
      <path id="Tracé_886" data-name="Tracé 886" d="M219.667,225.338a1.375,1.375,0,0,1-1.375,1.451,1.589,1.589,0,0,1-1.554-1.451,1.334,1.334,0,0,1,1.375-1.458,1.6,1.6,0,0,1,1.554,1.458Z" transform="translate(-138.599 -174.046)" fill="#2d6ee0"/>
      <path id="Tracé_887" data-name="Tracé 887" d="M233.366,225.338a1.334,1.334,0,0,1-1.375,1.451,1.6,1.6,0,0,1-1.561-1.451,1.375,1.375,0,0,1,1.375-1.458A1.589,1.589,0,0,1,233.366,225.338Z" transform="translate(-142.875 -174.046)" fill="#2d6ee0"/>
      <path id="Tracé_888" data-name="Tracé 888" d="M230.981,237.367a.337.337,0,0,1-.33-.309c-.172-2.345-3.844-4.25-8.184-4.25-2.882,0-5.467.86-6.747,2.235a2.572,2.572,0,0,0-.784,1.967.345.345,0,1,1-.688.048,3.274,3.274,0,0,1,.963-2.469c1.375-1.506,4.175-2.448,7.235-2.448,4.766,0,8.652,2.139,8.844,4.869a.33.33,0,0,1-.309.351Z" transform="translate(-137.822 -176.626)" fill="#2d6ee0"/>
      <path id="Tracé_889" data-name="Tracé 889" d="M213.023,220.706a.351.351,0,0,1-.227-.089.337.337,0,0,1,0-.475l1.465-1.575a.337.337,0,0,1,.468,0,.33.33,0,0,1,0,.468l-1.465,1.575a.33.33,0,0,1-.241.1Z" transform="translate(-137.339 -172.358)" fill="#2d6ee0"/>
      <path id="Tracé_890" data-name="Tracé 890" d="M236.666,220.706a.378.378,0,0,1-.227-.089l-1.685-1.575a.33.33,0,0,1,0-.475.337.337,0,0,1,.468,0l1.685,1.575a.33.33,0,0,1,0,.468.358.358,0,0,1-.241.1Z" transform="translate(-144.195 -172.358)" fill="#2d6ee0"/>
      <path id="Tracé_891" data-name="Tracé 891" d="M202.26,265.15h1.554l2.242,2.985-.213-2.985h1.568l.385,5.392h-1.589l-2.228-2.964.213,2.964h-1.568Z" transform="translate(-134.08 -186.933)" fill="#2d6ee0"/>
      <path id="Tracé_892" data-name="Tracé 892" d="M211.318,267.8a2.613,2.613,0,0,1,.591-2.063A2.586,2.586,0,0,1,213.9,265a3.012,3.012,0,0,1,2.125.722,2.971,2.971,0,0,1,.873,2.022,3.281,3.281,0,0,1-.206,1.547,2.063,2.063,0,0,1-.853.942,2.861,2.861,0,0,1-1.472.337,3.61,3.61,0,0,1-1.534-.289,2.49,2.49,0,0,1-1.032-.922,3.2,3.2,0,0,1-.488-1.561Zm1.671,0a1.878,1.878,0,0,0,.385,1.169,1.093,1.093,0,0,0,.853.358.949.949,0,0,0,.8-.351,1.891,1.891,0,0,0,.186-1.224,1.767,1.767,0,0,0-.385-1.114,1.128,1.128,0,0,0-.86-.351.949.949,0,0,0-.784.358,1.74,1.74,0,0,0-.2,1.169Z" transform="translate(-136.9 -186.884)" fill="#2d6ee0"/>
      <path id="Tracé_893" data-name="Tracé 893" d="M224.15,265.149h2.476a3.1,3.1,0,0,1,1.2.2,2.1,2.1,0,0,1,.784.571,2.586,2.586,0,0,1,.488.86,4.333,4.333,0,0,1,.206,1.045,3.494,3.494,0,0,1-.1,1.341,1.926,1.926,0,0,1-.488.8,1.581,1.581,0,0,1-.688.426,3.851,3.851,0,0,1-.983.151H224.57Zm1.754,1.224.213,2.943h.406a1.684,1.684,0,0,0,.736-.117.688.688,0,0,0,.316-.406,2.434,2.434,0,0,0,.055-.935,1.871,1.871,0,0,0-.365-1.169,1.245,1.245,0,0,0-.949-.316Z" transform="translate(-140.915 -186.933)" fill="#2d6ee0"/>
      <path id="Tracé_894" data-name="Tracé 894" d="M235.729,269.648h-1.891l-.2.894h-1.7l1.637-5.392h1.843l2.414,5.392h-1.747Zm-.433-1.162-.729-1.939-.454,1.939Z" transform="translate(-143.348 -186.933)" fill="#2d6ee0"/>
      <path id="Tracé_895" data-name="Tracé 895" d="M239.37,265.15h5.062l.1,1.334h-1.7l.289,4.058h-1.664l-.289-4.058h-1.7Z" transform="translate(-145.668 -186.933)" fill="#2d6ee0"/>
      <path id="Tracé_896" data-name="Tracé 896" d="M250.649,269.648h-1.891l-.2.894h-1.7l1.637-5.392h1.816l2.407,5.392h-1.74Zm-.433-1.162-.736-1.939-.461,1.939Z" transform="translate(-148.007 -186.933)" fill="#2d6ee0"/>
    </g>
    <g id="freepik--Character--inject-5" transform="translate(215.188 105.408)">
      <path id="Tracé_897" data-name="Tracé 897" d="M353.69,160.355c.612-.309,1.375-.688,2.022-1.08s1.375-.77,2.063-1.183c1.341-.832,2.7-1.651,3.989-2.558A52.917,52.917,0,0,0,369,149.578c.282-.261.53-.55.8-.832l.392-.42.193-.206.1-.11h0c-.1.186,0,.131,0-.048a3.631,3.631,0,0,0,.1-.75,21.048,21.048,0,0,0-.5-4.346c-.612-3.081-1.54-6.258-2.455-9.367l2.668-1.169a55.918,55.918,0,0,1,4.2,9.353,21.78,21.78,0,0,1,1.183,5.426,8.252,8.252,0,0,1-.055,1.726,5.3,5.3,0,0,1-.839,2.263l-.117.158-.089.11-.1.131-.213.261-.426.516c-.282.337-.557.688-.86,1.011a49.414,49.414,0,0,1-7.826,7.015,51.905,51.905,0,0,1-4.326,2.882c-.736.447-1.486.873-2.249,1.293s-1.506.8-2.386,1.217Z" transform="translate(-308.112 -119.031)" fill="#ffb573"/>
      <path id="Tracé_898" data-name="Tracé 898" d="M344.183,407.517a7.062,7.062,0,0,0,1.527-.206.151.151,0,0,0,.1-.11.144.144,0,0,0-.062-.138c-.2-.131-1.946-1.259-2.62-.956a.468.468,0,0,0-.268.385.777.777,0,0,0,.227.722,1.616,1.616,0,0,0,1.094.3Zm1.135-.4a2.778,2.778,0,0,1-2.063-.1.53.53,0,0,1-.138-.488.206.206,0,0,1,.117-.172C343.6,406.2,344.61,406.705,345.318,407.118Z" transform="translate(-304.726 -204.506)" fill="#2d6ee0"/>
      <path id="Tracé_899" data-name="Tracé 899" d="M346.3,406.7h.069a.145.145,0,0,0,.069-.117c0-.076,0-1.733-.633-2.283a.688.688,0,0,0-.578-.186.474.474,0,0,0-.461.378c-.131.688.915,1.891,1.465,2.208A.124.124,0,0,0,346.3,406.7Zm-.983-2.331a.454.454,0,0,1,.3.117,3.115,3.115,0,0,1,.536,1.816c-.55-.44-1.2-1.375-1.121-1.767,0-.062.048-.144.22-.165Z" transform="translate(-305.321 -203.898)" fill="#2d6ee0"/>
      <path id="Tracé_900" data-name="Tracé 900" d="M341.106,148.07c-.688,3.439-2.063,10.316.309,12.62,0,0-.935,3.439-7.283,3.439-6.987,0-3.336-3.439-3.336-3.439,3.81-.908,3.707-3.734,3.047-6.4Z" transform="translate(-300.665 -123.946)" fill="#ffb573"/>
      <path id="Tracé_901" data-name="Tracé 901" d="M329.048,166.652c-1.093.151-.158-2.689.282-2.985,1.032-.688,14.346-1.644,14.257,0a4.341,4.341,0,0,1-.963,2.517C342.046,166.639,338.621,165.222,329.048,166.652Z" transform="translate(-300.257 -128.533)" fill="#263238"/>
      <path id="Tracé_902" data-name="Tracé 902" d="M332.122,164.557c-.873.3-.791-2.565-.5-2.909.688-.8,11.465-3.562,11.781-2a4.378,4.378,0,0,1-.186,2.551C342.851,162.687,339.687,161.882,332.122,164.557Z" transform="translate(-301.158 -127.415)" fill="#263238"/>
      <path id="Tracé_903" data-name="Tracé 903" d="M325.56,138.434a.275.275,0,0,1-.227-.1,2.187,2.187,0,0,0-1.781-.846.268.268,0,0,1-.3-.241.275.275,0,0,1,.241-.3,2.689,2.689,0,0,1,2.263,1.038.275.275,0,0,1-.034.385A.344.344,0,0,1,325.56,138.434Z" transform="translate(-298.606 -120.472)" fill="#263238"/>
      <path id="Tracé_904" data-name="Tracé 904" d="M324.046,144a12.315,12.315,0,0,1-1.375,3.115,1.994,1.994,0,0,0,1.678.144Z" transform="translate(-298.425 -122.675)" fill="#ff5652"/>
      <path id="Tracé_905" data-name="Tracé 905" d="M324.661,142.433c.048.461-.165.86-.468.887s-.585-.316-.626-.784.165-.86.461-.887S324.613,141.966,324.661,142.433Z" transform="translate(-298.704 -121.941)" fill="#263238"/>
      <path id="Tracé_906" data-name="Tracé 906" d="M323.922,141.573l-1.142-.213S323.433,142.172,323.922,141.573Z" transform="translate(-298.46 -121.851)" fill="#263238"/>
      <path id="Tracé_907" data-name="Tracé 907" d="M354.083,401.632H348.32l.454-13.342h5.763Z" transform="translate(-306.435 -198.959)" fill="#ffb573"/>
      <path id="Tracé_908" data-name="Tracé 908" d="M343.89,406.72h6.472a.454.454,0,0,1,.461.392l.736,5.117a.922.922,0,0,1-.922,1.025c-2.256-.034-3.342-.172-6.19-.172-1.754,0-4.312.186-6.726.186s-2.551-2.393-1.54-2.607c4.512-.977,5.227-2.311,6.747-3.59a1.52,1.52,0,0,1,.963-.351Z" transform="translate(-302.459 -204.714)" fill="#263238"/>
      <g id="Groupe_1109" data-name="Groupe 1109" transform="translate(42.105 189.331)" opacity="0.2">
        <path id="Tracé_909" data-name="Tracé 909" d="M354.637,388.29h-5.763l-.234,6.877H354.4Z" transform="translate(-348.64 -388.29)"/>
      </g>
      <path id="Tracé_910" data-name="Tracé 910" d="M312.143,164.882a111.747,111.747,0,0,1-10.35-4.642,62.749,62.749,0,0,1-9.9-6.031,23.6,23.6,0,0,1-2.352-2.111c-.193-.206-.385-.4-.571-.64a7.791,7.791,0,0,1-.605-.777,5.432,5.432,0,0,1-.922-2.483,5.652,5.652,0,0,1,.337-2.49,7.317,7.317,0,0,1,.97-1.788,12.468,12.468,0,0,1,2.331-2.421,28.887,28.887,0,0,1,5.021-3.212c.853-.454,1.719-.86,2.6-1.238s1.747-.736,2.689-1.059l1.217,2.648a47.414,47.414,0,0,0-8.39,6.3,9.533,9.533,0,0,0-1.341,1.712c-.33.543-.323.949-.268.915s0,0,.1.069l.275.3c.1.124.248.248.378.378a17.618,17.618,0,0,0,1.85,1.486,43.273,43.273,0,0,0,4.429,2.751c1.547.867,3.143,1.685,4.766,2.469,3.246,1.554,6.6,3.047,9.9,4.408Z" transform="translate(-287.417 -120.174)" fill="#ffb573"/>
      <path id="Tracé_911" data-name="Tracé 911" d="M310.211,135.542l.949-2.063L306.814,132s-1.375,4.065.254,5.935h0A4.161,4.161,0,0,0,310.211,135.542Z" transform="translate(-293.305 -118.928)" fill="#ffb573"/>
      <path id="Tracé_912" data-name="Tracé 912" d="M311.386,127.2l-3.459-1-.867,3.961,4.326,1.506Z" transform="translate(-293.551 -117.117)" fill="#ffb573"/>
      <path id="Tracé_913" data-name="Tracé 913" d="M376.554,132.254l.5-4.814-4.457,1.073s-.069,4.525,2.29,5.241Z" transform="translate(-314.017 -117.504)" fill="#ffb573"/>
      <path id="Tracé_914" data-name="Tracé 914" d="M374.639,122.51l-2.909,1.355.6,3.074,4.457-1.052Z" transform="translate(-313.745 -115.965)" fill="#ffb573"/>
      <path id="Tracé_915" data-name="Tracé 915" d="M340.25,134.8c.213,5.715.419,8.129-2.159,11.327-3.886,4.814-10.949,3.817-12.861-1.719-1.719-4.979-1.774-13.486,3.562-16.292A7.8,7.8,0,0,1,340.25,134.8Z" transform="translate(-298.901 -117.43)" fill="#ffb573"/>
      <path id="Tracé_916" data-name="Tracé 916" d="M337.516,144.256c5.612-2.428,9.3-7.565,7.744-15.529-1.492-7.641-6.65-8.4-8.782-6.815s-7.448-.777-10.639,1.905c-5.5,4.656-.3,9.628,2.421,12.634C329.882,139.792,332.014,146.628,337.516,144.256Z" transform="translate(-298.657 -115.565)" fill="#263238"/>
      <path id="Tracé_917" data-name="Tracé 917" d="M340.014,125.96a5.7,5.7,0,1,0,1.259-8.2,5.866,5.866,0,0,0-1.259,8.2Z" transform="translate(-303.487 -114.167)" fill="#2d6ee0"/>
      <path id="Tracé_918" data-name="Tracé 918" d="M342.606,119.875c-.8-4.608,3.549-8.157,9.381-6.444s2.751,6.877,1.547,11,1.946,8.06,3.253,4.917-.894-4.126-.894-4.126,6.19,1.6.44,8.583-10.956-.729-9.546-5.275C347.93,124.882,343.37,124.228,342.606,119.875Z" transform="translate(-304.621 -112.993)" fill="#263238"/>
      <path id="Tracé_919" data-name="Tracé 919" d="M329.384,124.968c-2.661-1.375-7.166-2.51-9.731,1.809a8.128,8.128,0,0,0-.743,4.814l7.833.516Z" transform="translate(-297.223 -116.345)" fill="#263238"/>
      <path id="Tracé_920" data-name="Tracé 920" d="M317.535,130.089h0a.179.179,0,0,1-.165-.186,8.094,8.094,0,0,1,1.871-4.615c4.037-4.2,8.769-.688,10.117.447a.172.172,0,0,1-.22.261c-1.3-1.114-5.825-4.45-9.628-.475a7.952,7.952,0,0,0-1.774,4.4.172.172,0,0,1-.2.165Z" transform="translate(-296.77 -116.206)" fill="#263238"/>
      <path id="Tracé_921" data-name="Tracé 921" d="M330.259,142.242a4.738,4.738,0,0,1-1.135,2.944c-.949,1.114-2.063.564-2.29-.688-.227-1.107,0-3.026,1.2-3.693A1.458,1.458,0,0,1,330.259,142.242Z" transform="translate(-299.701 -121.605)" fill="#ffb573"/>
      <path id="Tracé_922" data-name="Tracé 922" d="M330.05,219.12s.371,39.992,3.838,62.274c2.806,18,7.985,59.62,7.985,59.62h7.861s.763-40.184-.688-57.983c-3.6-45.047,5.694-53.471-1.8-63.911Z" transform="translate(-300.73 -146.133)" fill="#263238"/>
      <path id="Tracé_923" data-name="Tracé 923" d="M330.05,219.12s.371,39.992,3.838,62.274c2.806,18,7.985,59.62,7.985,59.62h7.861s.763-40.184-.688-57.983c-3.6-45.047,5.694-53.471-1.8-63.911Z" transform="translate(-300.73 -146.133)" fill="#fff" opacity="0.1"/>
      <path id="Tracé_924" data-name="Tracé 924" d="M334.358,243.952c2.751,12.07.557,31.079-.949,39.448-1.6-12.709-2.4-29.181-2.8-41.264C332.034,239.84,333.382,239.688,334.358,243.952Z" transform="translate(-300.905 -152.823)" opacity="0.3"/>
      <path id="Tracé_925" data-name="Tracé 925" d="M345.655,394.825h10.007l.523-3.507L345.6,390.96Z" transform="translate(-305.586 -199.792)" fill="#2d6ee0"/>
      <path id="Tracé_926" data-name="Tracé 926" d="M349.486,168.62c.942-1.871,6-3.047,8.769-3.04l2.063,9.188s-5.5,8.177-7.8,7.311C349.816,181.082,347.471,172.657,349.486,168.62Z" transform="translate(-306.562 -129.414)" fill="#2d6ee0"/>
      <path id="Tracé_927" data-name="Tracé 927" d="M349.486,168.62c.942-1.871,6-3.047,8.769-3.04l2.063,9.188s-5.5,8.177-7.8,7.311C349.816,181.082,347.471,172.657,349.486,168.62Z" transform="translate(-306.562 -129.414)" opacity="0.4"/>
      <path id="Tracé_928" data-name="Tracé 928" d="M339.816,393.216a.131.131,0,0,0,0-.131.137.137,0,0,0-.144-.076c-.289.048-2.833.447-3.177,1.176a.447.447,0,0,0,0,.433.757.757,0,0,0,.591.392c.832.083,2.063-1.073,2.682-1.774Zm-3.054,1.059c.234-.385,1.554-.743,2.558-.928-.908.922-1.706,1.437-2.173,1.375a.488.488,0,0,1-.385-.261.172.172,0,0,1,0-.172A.009.009,0,0,1,336.763,394.275Z" transform="translate(-302.725 -200.432)" fill="#2d6ee0"/>
      <path id="Tracé_929" data-name="Tracé 929" d="M340,392.665a.131.131,0,0,0,0-.131,3.836,3.836,0,0,0-2-1.286.99.99,0,0,0-.75.254c-.282.254-.254.475-.186.612.3.591,2.125.8,2.861.64a.124.124,0,0,0,.076-.089Zm-2.689-.867a.544.544,0,0,1,.11-.124.688.688,0,0,1,.543-.186A3.164,3.164,0,0,1,339.6,392.5c-.818.069-2.139-.179-2.318-.536a.165.165,0,0,1,.021-.165Z" transform="translate(-302.904 -199.881)" fill="#2d6ee0"/>
      <path id="Tracé_930" data-name="Tracé 930" d="M345.065,384.3l-5.268,2.345-2.345-4.89-3.067-6.4-.365-.743,5.268-2.345.406.839,2.971,6.2Z" transform="translate(-301.97 -193.956)" fill="#ffb573"/>
      <path id="Tracé_931" data-name="Tracé 931" d="M342.83,379.687l-5.213,2.448-3.067-6.4,5.309-2.249Z" transform="translate(-302.135 -194.337)" opacity="0.2"/>
      <path id="Tracé_932" data-name="Tracé 932" d="M315.143,219.12s-16.829,41.869-12.269,61.539c4.126,17.805,22.351,51.525,22.351,51.525l7.063-3.535S321.017,287.942,319.8,279.1c-2.38-17.193,12.909-41.491,12.909-59.977Z" transform="translate(-291.999 -146.133)" fill="#263238"/>
      <path id="Tracé_933" data-name="Tracé 933" d="M315.143,219.12s-16.829,41.869-12.269,61.539c4.126,17.805,22.351,51.525,22.351,51.525l7.063-3.535S321.017,287.942,319.8,279.1c-2.38-17.193,12.909-41.491,12.909-59.977Z" transform="translate(-291.999 -146.133)" fill="#fff" opacity="0.1"/>
      <path id="Tracé_934" data-name="Tracé 934" d="M338.828,390.329l5.227-3.8a.454.454,0,0,1,.605.041l3.611,3.707a.928.928,0,0,1-.144,1.375c-1.85,1.293-2.806,1.829-5.1,3.5-1.417,1.032-4.236,3.308-6.19,4.732s-3.439-.433-2.751-1.2c3.081-3.439,3.728-5.571,4.209-7.5a1.492,1.492,0,0,1,.536-.853Z" transform="translate(-301.936 -198.378)" fill="#263238"/>
      <path id="Tracé_935" data-name="Tracé 935" d="M334.249,382.118l9.1-4.161-1.162-3.707-9.745,4.443Z" transform="translate(-301.476 -194.574)" fill="#2d6ee0"/>
      <path id="Tracé_936" data-name="Tracé 936" d="M322.077,167.174c-.75-1.953-7.324-4.126-10.626-4.814L310,173.171s5.392,7.744,7.751,7.1C320.543,179.519,323.7,171.362,322.077,167.174Z" transform="translate(-294.469 -128.409)" fill="#2d6ee0"/>
      <path id="Tracé_937" data-name="Tracé 937" d="M322.077,167.174c-.75-1.953-7.324-4.126-10.626-4.814L310,173.171s5.392,7.744,7.751,7.1C320.543,179.519,323.7,171.362,322.077,167.174Z" transform="translate(-294.469 -128.409)" opacity="0.4"/>
      <path id="Tracé_938" data-name="Tracé 938" d="M316.758,167.812s-2.751.963,2.751,34.765h23.383c-.392-9.518-.406-15.392,4.126-34.937a68.964,68.964,0,0,0-9.938-1.307,73.861,73.861,0,0,0-10.619,0A98.039,98.039,0,0,0,316.758,167.812Z" transform="translate(-296.364 -129.59)" fill="#2d6ee0"/>
      <path id="Tracé_939" data-name="Tracé 939" d="M316.758,167.812s-2.751.963,2.751,34.765h23.383c-.392-9.518-.406-15.392,4.126-34.937a68.964,68.964,0,0,0-9.938-1.307,73.861,73.861,0,0,0-10.619,0A98.039,98.039,0,0,0,316.758,167.812Z" transform="translate(-296.364 -129.59)" opacity="0.4"/>
      <path id="Tracé_940" data-name="Tracé 940" d="M344.486,217.046l1.052,2.063c.083.165-.11.33-.378.33H320.622c-.213,0-.385-.1-.4-.241l-.213-2.063c0-.144.172-.268.4-.268h23.665A.42.42,0,0,1,344.486,217.046Z" transform="translate(-297.595 -145.428)" fill="#2d6ee0"/>
      <path id="Tracé_941" data-name="Tracé 941" d="M344.486,217.046l1.052,2.063c.083.165-.11.33-.378.33H320.622c-.213,0-.385-.1-.4-.241l-.213-2.063c0-.144.172-.268.4-.268h23.665A.42.42,0,0,1,344.486,217.046Z" transform="translate(-297.595 -145.428)" fill="#fff" opacity="0.3"/>
      <path id="Tracé_942" data-name="Tracé 942" d="M350.753,219.62h.633c.131,0,.227-.069.213-.144l-.3-2.751c0-.083-.117-.144-.241-.144h-.64c-.124,0-.22.062-.213.144l.3,2.751C350.5,219.537,350.609,219.62,350.753,219.62Z" transform="translate(-307.025 -145.34)" fill="#263238"/>
      <path id="Tracé_943" data-name="Tracé 943" d="M328.363,219.62H329c.124,0,.22-.069.213-.144l-.3-2.751c0-.083-.117-.144-.248-.144h-.633c-.131,0-.22.062-.213.144l.3,2.751C328.122,219.537,328.232,219.62,328.363,219.62Z" transform="translate(-300.033 -145.34)" fill="#263238"/>
    </g>
  </g>
</svg>
